<svg width="2429.61" height="1957.76" viewBox="-1066.83 -1028.4 2429.61 1957.76" xmlns="http://www.w3.org/2000/svg">
<polygon points="-636 -67 -624 -73 -620 -77 " stroke="black" fill="transparent" stroke-width="1"/>
<polygon points="-5 347 -14 301 -19 298 " stroke="black" fill="transparent" stroke-width="1"/>
<polygon points="-60 265 -59 320 -29 330 " stroke="black" fill="transparent" stroke-width="1"/>
<polygon points="-84 273 -55 249 -66 243 " stroke="black" fill="transparent" stroke-width="1"/>
<polygon points="-15 279 -44 302 5 339 " stroke="black" fill="transparent" stroke-width="1"/>
<polygon points="105 415 146 479 122 473 " stroke="black" fill="transparent" stroke-width="1"/>
<polygon points="82 424 102 392 126 397 " stroke="black" fill="transparent" stroke-width="1"/>
<polygon points="126 397 83 426 82 424 " stroke="black" fill="transparent" stroke-width="1"/>
<polygon points="1217 401 1206 416 1227 441 " stroke="black" fill="transparent" stroke-width="1"/>
<polygon points="1220 470 1202 446 1193 491 " stroke="black" fill="transparent" stroke-width="1"/>
<polygon points="1093 452 1065 463 1092 472 " stroke="black" fill="transparent" stroke-width="1"/>
<polygon points="729 480 728 475 731 474 " stroke="black" fill="transparent" stroke-width="1"/>
<polygon points="855 505 845 511 875 553 " stroke="black" fill="transparent" stroke-width="1"/>
<polygon points="875 553 862 506 855 505 " stroke="black" fill="transparent" stroke-width="1"/>
<polygon points="604 311 602 311 592 304 " stroke="black" fill="transparent" stroke-width="1"/>
<polygon points="602 311 601 314 592 304 " stroke="black" fill="transparent" stroke-width="1"/>
<polygon points="883 444 884 487 893 438 " stroke="black" fill="transparent" stroke-width="1"/>
<polygon points="1004 466 995 515 1037 500 " stroke="black" fill="transparent" stroke-width="1"/>
<polygon points="1107 452 1080 439 1080 435 " stroke="black" fill="transparent" stroke-width="1"/>
<polygon points="1052 485 1070 451 1092 471 " stroke="black" fill="transparent" stroke-width="1"/>
<polygon points="1088 480 1079 526 1046 496 " stroke="black" fill="transparent" stroke-width="1"/>
<polygon points="1028 572 1061 522 1084 557 " stroke="black" fill="transparent" stroke-width="1"/>
<polygon points="1005 677 1004 602 1062 586 " stroke="black" fill="transparent" stroke-width="1"/>
<polygon points="999 465 1059 464 1014 471 " stroke="black" fill="transparent" stroke-width="1"/>
<polygon points="1016 459 1031 464 1012 472 " stroke="black" fill="transparent" stroke-width="1"/>
<polygon points="993 478 1057 448 1054 471 " stroke="black" fill="transparent" stroke-width="1"/>
<polygon points="1124 -71 1117 -70 1120 -76 " stroke="black" fill="transparent" stroke-width="1"/>
<polygon points="960 13 950 -18 1005 -25 " stroke="black" fill="transparent" stroke-width="1"/>
<polygon points="1037 7 981 1 1057 -5 " stroke="black" fill="transparent" stroke-width="1"/>
<polygon points="1036 102 1024 113 1015 55 " stroke="black" fill="transparent" stroke-width="1"/>
<polygon points="1053 70 1039 71 1041 74 " stroke="black" fill="transparent" stroke-width="1"/>
<polygon points="985 -27 1064 5 987 8 " stroke="black" fill="transparent" stroke-width="1"/>
<polygon points="1079 16 1077 20 1001 -18 " stroke="black" fill="transparent" stroke-width="1"/>
<polygon points="1084 109 1022 50 1062 125 " stroke="black" fill="transparent" stroke-width="1"/>
<polygon points="906 270 980 232 981 232 " stroke="black" fill="transparent" stroke-width="1"/>
<polygon points="983 231 914 276 962 238 " stroke="black" fill="transparent" stroke-width="1"/>
<polygon points="940 229 874 233 929 225 " stroke="black" fill="transparent" stroke-width="1"/>
<polygon points="931 228 863 218 878 243 " stroke="black" fill="transparent" stroke-width="1"/>
<polygon points="878 243 931 230 931 228 " stroke="black" fill="transparent" stroke-width="1"/>
<polygon points="973 170 971 170 933 156 " stroke="black" fill="transparent" stroke-width="1"/>
<polygon points="973 170 933 156 932 108 " stroke="black" fill="transparent" stroke-width="1"/>
<polygon points="973 170 932 108 958 64 " stroke="black" fill="transparent" stroke-width="1"/>
<polygon points="932 108 931 105 958 64 " stroke="black" fill="transparent" stroke-width="1"/>
<polygon points="929 213 878 209 961 206 " stroke="black" fill="transparent" stroke-width="1"/>
<polygon points="886 116 987 222 992 220 " stroke="black" fill="transparent" stroke-width="1"/>
<polygon points="972 203 992 221 987 222 " stroke="black" fill="transparent" stroke-width="1"/>
<polygon points="987 222 900 224 972 203 " stroke="black" fill="transparent" stroke-width="1"/>
<polygon points="1091 208 1164 298 1080 286 " stroke="black" fill="transparent" stroke-width="1"/>
<polygon points="1080 286 1087 207 1091 208 " stroke="black" fill="transparent" stroke-width="1"/>
<polygon points="1096 204 1112 281 1128 262 " stroke="black" fill="transparent" stroke-width="1"/>
<polygon points="1150 161 1109 96 1180 145 " stroke="black" fill="transparent" stroke-width="1"/>
<polygon points="1114 291 1084 281 1100 214 " stroke="black" fill="transparent" stroke-width="1"/>
<polygon points="1012 351 1047 252 1049 293 " stroke="black" fill="transparent" stroke-width="1"/>
<polygon points="966 290 1009 270 954 367 " stroke="black" fill="transparent" stroke-width="1"/>
<polygon points="919 308 995 280 960 282 " stroke="black" fill="transparent" stroke-width="1"/>
<polygon points="975 277 899 301 973 295 " stroke="black" fill="transparent" stroke-width="1"/>
<polygon points="978 303 911 270 912 305 " stroke="black" fill="transparent" stroke-width="1"/>
<polygon points="962 329 1002 336 1030 321 " stroke="black" fill="transparent" stroke-width="1"/>
<polygon points="971 307 946 304 1025 301 " stroke="black" fill="transparent" stroke-width="1"/>
<polygon points="990 298 918 298 969 307 " stroke="black" fill="transparent" stroke-width="1"/>
<polygon points="1009 260 958 275 946 267 " stroke="black" fill="transparent" stroke-width="1"/>
<polygon points="976 215 902 234 957 212 " stroke="black" fill="transparent" stroke-width="1"/>
<polygon points="1010 305 1006 207 999 204 " stroke="black" fill="transparent" stroke-width="1"/>
<polygon points="1270 -20 1222 -42 1232 12 " stroke="black" fill="transparent" stroke-width="1"/>
<polygon points="1245 56 1311 71 1266 20 " stroke="black" fill="transparent" stroke-width="1"/>
<polygon points="1266 6 1335 53 1330 20 " stroke="black" fill="transparent" stroke-width="1"/>
<polygon points="1222 -113 1220 -83 1301 -70 " stroke="black" fill="transparent" stroke-width="1"/>
<polygon points="1239 -81 1281 -107 1198 -118 " stroke="black" fill="transparent" stroke-width="1"/>
<polygon points="1067 357 1049 341 1083 415 " stroke="black" fill="transparent" stroke-width="1"/>
<polygon points="1171 338 1137 263 1141 312 " stroke="black" fill="transparent" stroke-width="1"/>
<polygon points="1220 17 1217 60 1256 45 " stroke="black" fill="transparent" stroke-width="1"/>
<polygon points="1249 5 1250 -28 1213 -14 " stroke="black" fill="transparent" stroke-width="1"/>
<polygon points="987 -129 1023 -66 1038 -122 " stroke="black" fill="transparent" stroke-width="1"/>
<polygon points="1072 -122 1021 -145 1006 -94 " stroke="black" fill="transparent" stroke-width="1"/>
<polygon points="1010 -81 1007 -140 942 -104 " stroke="black" fill="transparent" stroke-width="1"/>
<polygon points="881 71 855 39 786 45 " stroke="black" fill="transparent" stroke-width="1"/>
<polygon points="1150 168 1178 176 1154 149 " stroke="black" fill="transparent" stroke-width="1"/>
<polygon points="1288 -252 1260 -261 1312 -238 " stroke="black" fill="transparent" stroke-width="1"/>
<polygon points="1330 1 1312 2 1292 -9 " stroke="black" fill="transparent" stroke-width="1"/>
<polygon points="1362 15 1317 2 1336 2 " stroke="black" fill="transparent" stroke-width="1"/>
<polygon points="1222 -301 1253 -297 1215 -324 " stroke="black" fill="transparent" stroke-width="1"/>
<polygon points="1211 168 1154 151 1186 162 " stroke="black" fill="transparent" stroke-width="1"/>
<polygon points="1228 -180 1281 -160 1250 -172 " stroke="black" fill="transparent" stroke-width="1"/>
<polygon points="1317 -135 1291 -148 1329 -140 " stroke="black" fill="transparent" stroke-width="1"/>
<polygon points="1302 -195 1324 -207 1344 -188 " stroke="black" fill="transparent" stroke-width="1"/>
<polygon points="1008 572 1028 552 1055 573 " stroke="black" fill="transparent" stroke-width="1"/>
<polygon points="1019 -124 1007 -138 1012 -138 " stroke="black" fill="transparent" stroke-width="1"/>
<polygon points="968 -133 937 -158 948 -143 " stroke="black" fill="transparent" stroke-width="1"/>
<polygon points="963 -171 935 -166 970 -151 " stroke="black" fill="transparent" stroke-width="1"/>
<polygon points="919 -165 926 -144 989 -147 " stroke="black" fill="transparent" stroke-width="1"/>
<polygon points="309 -252 319 -223 322 -235 " stroke="black" fill="transparent" stroke-width="1"/>
<polygon points="758 -276 751 -273 768 -261 " stroke="black" fill="transparent" stroke-width="1"/>
<polygon points="954 -31 961 -56 958 -38 " stroke="black" fill="transparent" stroke-width="1"/>
<polygon points="920 -59 913 -55 924 -27 " stroke="black" fill="transparent" stroke-width="1"/>
<polygon points="894 102 849 108 851 149 " stroke="black" fill="transparent" stroke-width="1"/>
<polygon points="895 64 845 106 896 101 " stroke="black" fill="transparent" stroke-width="1"/>
<polygon points="156 -221 158 -234 144 -245 " stroke="black" fill="transparent" stroke-width="1"/>
<polygon points="768 -129 776 -102 767 -131 " stroke="black" fill="transparent" stroke-width="1"/>
<polygon points="456 -54 424 13 417 -44 " stroke="black" fill="transparent" stroke-width="1"/>
<polygon points="841 -2 856 36 847 22 " stroke="black" fill="transparent" stroke-width="1"/>
<polygon points="573 -177 575 -238 543 -236 " stroke="black" fill="transparent" stroke-width="1"/>
<polygon points="647 -310 671 -284 665 -345 " stroke="black" fill="transparent" stroke-width="1"/>
<polygon points="606 -255 604 -194 623 -239 " stroke="black" fill="transparent" stroke-width="1"/>
<polygon points="936 -3 941 -36 938 -26 " stroke="black" fill="transparent" stroke-width="1"/>
<polygon points="927 -15 919 -35 919 -5 " stroke="black" fill="transparent" stroke-width="1"/>
<polygon points="865 113 888 132 880 56 " stroke="black" fill="transparent" stroke-width="1"/>
<polygon points="678 417 680 373 658 396 " stroke="black" fill="transparent" stroke-width="1"/>
<polygon points="939 -71 891 -93 906 -71 " stroke="black" fill="transparent" stroke-width="1"/>
<polygon points="943 -2 895 -20 943 2 " stroke="black" fill="transparent" stroke-width="1"/>
<polygon points="952 168 991 194 958 134 " stroke="black" fill="transparent" stroke-width="1"/>
<polygon points="913 145 916 222 949 198 " stroke="black" fill="transparent" stroke-width="1"/>
<polygon points="930 240 932 181 898 188 " stroke="black" fill="transparent" stroke-width="1"/>
<polygon points="925 195 875 154 878 195 " stroke="black" fill="transparent" stroke-width="1"/>
<polygon points="809 239 876 223 759 191 " stroke="black" fill="transparent" stroke-width="1"/>
<polygon points="853 227 838 183 740 183 " stroke="black" fill="transparent" stroke-width="1"/>
<polygon points="873 258 786 185 804 227 " stroke="black" fill="transparent" stroke-width="1"/>
<polygon points="917 336 867 333 942 361 " stroke="black" fill="transparent" stroke-width="1"/>
<polygon points="1224 235 1214 252 1213 254 " stroke="black" fill="transparent" stroke-width="1"/>
<polygon points="1188 348 1180 377 1183 358 " stroke="black" fill="transparent" stroke-width="1"/>
<polygon points="1081 922 1096 929 1115 896 " stroke="black" fill="transparent" stroke-width="1"/>
<polygon points="1335 190 1318 184 1315 187 " stroke="black" fill="transparent" stroke-width="1"/>
<polygon points="767 468 784 483 759 478 " stroke="black" fill="transparent" stroke-width="1"/>
<polygon points="800 273 789 285 789 245 " stroke="black" fill="transparent" stroke-width="1"/>
<polygon points="1000 267 996 235 1001 235 " stroke="black" fill="transparent" stroke-width="1"/>
<polygon points="1037 363 1064 368 1085 341 " stroke="black" fill="transparent" stroke-width="1"/>
<polygon points="1040 365 1088 344 1008 355 " stroke="black" fill="transparent" stroke-width="1"/>
<polygon points="1161 214 1201 237 1167 212 " stroke="black" fill="transparent" stroke-width="1"/>
<polygon points="1162 150 1121 133 1090 128 " stroke="black" fill="transparent" stroke-width="1"/>
<polygon points="1133 226 1149 232 1159 231 " stroke="black" fill="transparent" stroke-width="1"/>
<polygon points="1110 190 1142 198 1126 192 " stroke="black" fill="transparent" stroke-width="1"/>
<polygon points="1158 470 1141 448 1154 446 " stroke="black" fill="transparent" stroke-width="1"/>
<polygon points="1168 316 1187 305 1166 275 " stroke="black" fill="transparent" stroke-width="1"/>
<polygon points="1086 411 1115 423 1130 391 " stroke="black" fill="transparent" stroke-width="1"/>
<polygon points="1089 231 1107 234 1078 226 " stroke="black" fill="transparent" stroke-width="1"/>
<polygon points="1206 75 1233 65 1172 47 " stroke="black" fill="transparent" stroke-width="1"/>
<polygon points="1137 23 1165 26 1138 4 " stroke="black" fill="transparent" stroke-width="1"/>
<polygon points="1004 108 1031 99 1068 102 " stroke="black" fill="transparent" stroke-width="1"/>
<polygon points="1036 129 1033 133 967 128 " stroke="black" fill="transparent" stroke-width="1"/>
<polygon points="760 82 772 94 783 65 " stroke="black" fill="transparent" stroke-width="1"/>
<polygon points="955 493 948 459 932 511 " stroke="black" fill="transparent" stroke-width="1"/>
<polygon points="688 -63 664 -42 674 -16 " stroke="black" fill="transparent" stroke-width="1"/>
<polygon points="702 163 659 217 691 186 " stroke="black" fill="transparent" stroke-width="1"/>
<polygon points="673 132 742 96 708 126 " stroke="black" fill="transparent" stroke-width="1"/>
<polygon points="926 131 997 145 920 150 " stroke="black" fill="transparent" stroke-width="1"/>
<polygon points="1001 118 995 139 954 130 " stroke="black" fill="transparent" stroke-width="1"/>
<polygon points="1002 345 1089 340 1062 315 " stroke="black" fill="transparent" stroke-width="1"/>
<polygon points="1169 376 1118 324 1116 405 " stroke="black" fill="transparent" stroke-width="1"/>
<polygon points="1119 331 1093 343 1115 411 " stroke="black" fill="transparent" stroke-width="1"/>
<polygon points="1223 365 1242 329 1210 383 " stroke="black" fill="transparent" stroke-width="1"/>
<polygon points="1175 273 1149 302 1221 323 " stroke="black" fill="transparent" stroke-width="1"/>
<polygon points="1294 197 1285 140 1296 213 " stroke="black" fill="transparent" stroke-width="1"/>
<polygon points="1292 244 1288 170 1294 201 " stroke="black" fill="transparent" stroke-width="1"/>
<polygon points="1296 203 1288 172 1299 133 " stroke="black" fill="transparent" stroke-width="1"/>
<polygon points="1269 289 1201 398 1236 346 " stroke="black" fill="transparent" stroke-width="1"/>
<polygon points="1239 391 1114 476 1215 418 " stroke="black" fill="transparent" stroke-width="1"/>
<polygon points="1220 416 1157 436 1088 485 " stroke="black" fill="transparent" stroke-width="1"/>
<polygon points="1162 439 1126 458 1191 447 " stroke="black" fill="transparent" stroke-width="1"/>
<polygon points="1200 441 1267 408 1170 436 " stroke="black" fill="transparent" stroke-width="1"/>
<polygon points="1220 443 1183 440 1119 442 " stroke="black" fill="transparent" stroke-width="1"/>
<polygon points="1199 378 1213 430 1163 373 " stroke="black" fill="transparent" stroke-width="1"/>
<polygon points="1002 365 1009 272 1008 357 " stroke="black" fill="transparent" stroke-width="1"/>
<polygon points="991 399 1004 397 952 456 " stroke="black" fill="transparent" stroke-width="1"/>
<polygon points="1057 445 994 477 982 465 " stroke="black" fill="transparent" stroke-width="1"/>
<polygon points="977 482 1006 439 1019 451 " stroke="black" fill="transparent" stroke-width="1"/>
<polygon points="1240 311 1257 309 1270 276 " stroke="black" fill="transparent" stroke-width="1"/>
<polygon points="1193 340 1175 335 1187 362 " stroke="black" fill="transparent" stroke-width="1"/>
<polygon points="1315 74 1297 9 1307 96 " stroke="black" fill="transparent" stroke-width="1"/>
<polygon points="1284 120 1291 184 1249 178 " stroke="black" fill="transparent" stroke-width="1"/>
<polygon points="1322 102 1318 170 1311 108 " stroke="black" fill="transparent" stroke-width="1"/>
<polygon points="1303 24 1320 98 1285 100 " stroke="black" fill="transparent" stroke-width="1"/>
<polygon points="1285 101 1266 19 1303 25 " stroke="black" fill="transparent" stroke-width="1"/>
<polygon points="1327 84 1325 37 1347 91 " stroke="black" fill="transparent" stroke-width="1"/>
<polygon points="1326 112 1315 118 1327 65 " stroke="black" fill="transparent" stroke-width="1"/>
<polygon points="1255 195 1301 186 1259 240 " stroke="black" fill="transparent" stroke-width="1"/>
<polygon points="1308 209 1265 220 1289 157 " stroke="black" fill="transparent" stroke-width="1"/>
<polygon points="1341 154 1317 206 1299 157 " stroke="black" fill="transparent" stroke-width="1"/>
<polygon points="1318 194 1292 208 1312 181 " stroke="black" fill="transparent" stroke-width="1"/>
<polygon points="1202 190 1291 146 1278 210 " stroke="black" fill="transparent" stroke-width="1"/>
<polygon points="1242 288 1139 310 1139 310 " stroke="black" fill="transparent" stroke-width="1"/>
<polygon points="1139 310 1207 290 1242 288 " stroke="black" fill="transparent" stroke-width="1"/>
<polygon points="1256 279 1238 290 1204 294 " stroke="black" fill="transparent" stroke-width="1"/>
<polygon points="1162 317 1109 312 1125 333 " stroke="black" fill="transparent" stroke-width="1"/>
<polygon points="1030 330 967 315 965 319 " stroke="black" fill="transparent" stroke-width="1"/>
<polygon points="965 319 967 366 1030 330 " stroke="black" fill="transparent" stroke-width="1"/>
<polygon points="965 384 1026 361 1030 326 " stroke="black" fill="transparent" stroke-width="1"/>
<polygon points="976 384 1024 394 1039 339 " stroke="black" fill="transparent" stroke-width="1"/>
<polygon points="1028 291 1040 340 1076 298 " stroke="black" fill="transparent" stroke-width="1"/>
<polygon points="1117 140 1159 178 1105 139 " stroke="black" fill="transparent" stroke-width="1"/>
<polygon points="1054 188 1062 189 1031 142 " stroke="black" fill="transparent" stroke-width="1"/>
<polygon points="1028 227 1032 175 1016 187 " stroke="black" fill="transparent" stroke-width="1"/>
<polygon points="1017 186 993 255 994 271 " stroke="black" fill="transparent" stroke-width="1"/>
<polygon points="994 271 1019 301 1017 186 " stroke="black" fill="transparent" stroke-width="1"/>
<polygon points="974 327 1009 258 994 200 " stroke="black" fill="transparent" stroke-width="1"/>
<polygon points="981 315 990 261 955 333 " stroke="black" fill="transparent" stroke-width="1"/>
<polygon points="980 -270 955 -231 898 -200 " stroke="black" fill="transparent" stroke-width="1"/>
<polygon points="898 -200 890 -190 884 -186 " stroke="black" fill="transparent" stroke-width="1"/>
<polygon points="712 -258 757 -226 697 -229 " stroke="black" fill="transparent" stroke-width="1"/>
<polygon points="651 -221 657 -152 610 -186 " stroke="black" fill="transparent" stroke-width="1"/>
<polygon points="898 -200 884 -186 843 -152 " stroke="black" fill="transparent" stroke-width="1"/>
<polygon points="990 -362 898 -200 843 -152 " stroke="black" fill="transparent" stroke-width="1"/>
<polygon points="990 -362 980 -270 898 -200 " stroke="black" fill="transparent" stroke-width="1"/>
<polygon points="990 -362 987 -285 980 -270 " stroke="black" fill="transparent" stroke-width="1"/>
<polygon points="1261 59 1239 41 1200 41 " stroke="black" fill="transparent" stroke-width="1"/>
<polygon points="1238 84 1257 112 1262 115 " stroke="black" fill="transparent" stroke-width="1"/>
<polygon points="1262 115 1297 92 1238 84 " stroke="black" fill="transparent" stroke-width="1"/>
<polygon points="999 358 988 286 972 303 " stroke="black" fill="transparent" stroke-width="1"/>
<polygon points="979 370 985 405 963 301 " stroke="black" fill="transparent" stroke-width="1"/>
<polygon points="259 -467 263 -466 267 -464 " stroke="black" fill="transparent" stroke-width="1"/>
<polygon points="843 -164 830 -117 832 -114 " stroke="black" fill="transparent" stroke-width="1"/>
<polygon points="832 -114 874 -127 843 -164 " stroke="black" fill="transparent" stroke-width="1"/>
<polygon points="917 58 891 28 923 87 " stroke="black" fill="transparent" stroke-width="1"/>
<polygon points="910 -11 929 -61 863 -57 " stroke="black" fill="transparent" stroke-width="1"/>
<polygon points="-259 -744 -233 -761 -230 -757 " stroke="black" fill="transparent" stroke-width="1"/>
<polygon points="-259 -744 -242 -782 -233 -761 " stroke="black" fill="transparent" stroke-width="1"/>
<polygon points="451 193 491 156 494 194 " stroke="black" fill="transparent" stroke-width="1"/>
<polygon points="-600 -653 -585 -639 -580 -636 " stroke="black" fill="transparent" stroke-width="1"/>
<polygon points="-561 -670 -566 -689 -568 -690 " stroke="black" fill="transparent" stroke-width="1"/>
<polygon points="-618 -643 -623 -673 -622 -674 " stroke="black" fill="transparent" stroke-width="1"/>
<polygon points="-603 -679 -589 -652 -586 -674 " stroke="black" fill="transparent" stroke-width="1"/>
<polygon points="-638 -640 -647 -648 -647 -647 " stroke="black" fill="transparent" stroke-width="1"/>
<polygon points="-454 -558 -439 -478 -439 -478 " stroke="black" fill="transparent" stroke-width="1"/>
<polygon points="-472 -555 -495 -615 -484 -519 " stroke="black" fill="transparent" stroke-width="1"/>
<polygon points="-647 -647 -647 -648 -660 -612 " stroke="black" fill="transparent" stroke-width="1"/>
<polygon points="-638 -640 -647 -647 -660 -612 " stroke="black" fill="transparent" stroke-width="1"/>
<polygon points="-640 -609 -689 -645 -671 -612 " stroke="black" fill="transparent" stroke-width="1"/>
<polygon points="-635 -653 -597 -607 -629 -651 " stroke="black" fill="transparent" stroke-width="1"/>
<polygon points="-586 -570 -614 -648 -616 -611 " stroke="black" fill="transparent" stroke-width="1"/>
<polygon points="-574 -572 -579 -660 -588 -653 " stroke="black" fill="transparent" stroke-width="1"/>
<polygon points="-588 -653 -574 -572 -574 -572 " stroke="black" fill="transparent" stroke-width="1"/>
<polygon points="-698 -381 -757 -371 -680 -338 " stroke="black" fill="transparent" stroke-width="1"/>
<polygon points="-538 -196 -499 -162 -567 -258 " stroke="black" fill="transparent" stroke-width="1"/>
<polygon points="-497 -276 -517 -339 -573 -256 " stroke="black" fill="transparent" stroke-width="1"/>
<polygon points="-593 -272 -527 -345 -631 -303 " stroke="black" fill="transparent" stroke-width="1"/>
<polygon points="-554 -321 -634 -363 -663 -311 " stroke="black" fill="transparent" stroke-width="1"/>
<polygon points="-638 -559 -607 -553 -624 -583 " stroke="black" fill="transparent" stroke-width="1"/>
<polygon points="-608 -578 -600 -607 -600 -611 " stroke="black" fill="transparent" stroke-width="1"/>
<polygon points="-600 -611 -616 -618 -608 -578 " stroke="black" fill="transparent" stroke-width="1"/>
<polygon points="-560 -568 -542 -562 -543 -566 " stroke="black" fill="transparent" stroke-width="1"/>
<polygon points="-660 -612 -660 -611 -660 -607 " stroke="black" fill="transparent" stroke-width="1"/>
<polygon points="-638 -640 -660 -612 -660 -607 " stroke="black" fill="transparent" stroke-width="1"/>
<polygon points="-660 -726 -657 -728 -644 -731 " stroke="black" fill="transparent" stroke-width="1"/>
<polygon points="-618 -739 -617 -739 -618 -748 " stroke="black" fill="transparent" stroke-width="1"/>
<polygon points="-622 -625 -621 -635 -620 -659 " stroke="black" fill="transparent" stroke-width="1"/>
<polygon points="-612 -423 -610 -542 -611 -549 " stroke="black" fill="transparent" stroke-width="1"/>
<polygon points="-612 -423 -611 -549 -620 -607 " stroke="black" fill="transparent" stroke-width="1"/>
<polygon points="-612 -423 -620 -607 -622 -625 " stroke="black" fill="transparent" stroke-width="1"/>
<polygon points="-656 -524 -668 -530 -616 -498 " stroke="black" fill="transparent" stroke-width="1"/>
<polygon points="-601 -596 -604 -548 -594 -533 " stroke="black" fill="transparent" stroke-width="1"/>
<polygon points="-660 -607 -660 -602 -653 -539 " stroke="black" fill="transparent" stroke-width="1"/>
<polygon points="-382 -1029 -357 -1006 -384 -1005 " stroke="black" fill="transparent" stroke-width="1"/>
<polygon points="-578 -824 -542 -812 -536 -784 " stroke="black" fill="transparent" stroke-width="1"/>
<polygon points="-605 -700 -621 -733 -577 -694 " stroke="black" fill="transparent" stroke-width="1"/>
<polygon points="-586 -601 -603 -558 -622 -579 " stroke="black" fill="transparent" stroke-width="1"/>
<polygon points="-677 -572 -644 -556 -701 -542 " stroke="black" fill="transparent" stroke-width="1"/>
<polygon points="-719 -523 -657 -539 -678 -499 " stroke="black" fill="transparent" stroke-width="1"/>
<polygon points="-667 -632 -634 -611 -697 -592 " stroke="black" fill="transparent" stroke-width="1"/>
<polygon points="-721 -659 -642 -646 -696 -632 " stroke="black" fill="transparent" stroke-width="1"/>
<polygon points="-175 -630 -211 -587 -210 -644 " stroke="black" fill="transparent" stroke-width="1"/>
<polygon points="-134 -584 -173 -604 -134 -636 " stroke="black" fill="transparent" stroke-width="1"/>
<polygon points="-744 -408 -769 -447 -771 -420 " stroke="black" fill="transparent" stroke-width="1"/>
<polygon points="-338 -671 -321 -632 -358 -638 " stroke="black" fill="transparent" stroke-width="1"/>
<polygon points="-371 -701 -394 -709 -361 -734 " stroke="black" fill="transparent" stroke-width="1"/>
<polygon points="-300 -674 -331 -631 -328 -682 " stroke="black" fill="transparent" stroke-width="1"/>
<polygon points="-361 -662 -350 -613 -389 -646 " stroke="black" fill="transparent" stroke-width="1"/>
<polygon points="-289 -845 -271 -847 -215 -852 " stroke="black" fill="transparent" stroke-width="1"/>
<polygon points="-895 -1 -945 -25 -949 -28 " stroke="black" fill="transparent" stroke-width="1"/>
<polygon points="-691 -568 -681 -600 -678 -603 " stroke="black" fill="transparent" stroke-width="1"/>
<polygon points="-616 -513 -593 -485 -577 -493 " stroke="black" fill="transparent" stroke-width="1"/>
<polygon points="-575 -474 -579 -494 -594 -486 " stroke="black" fill="transparent" stroke-width="1"/>
<polygon points="-864 -363 -829 -366 -830 -388 " stroke="black" fill="transparent" stroke-width="1"/>
<polygon points="-678 -590 -721 -586 -636 -586 " stroke="black" fill="transparent" stroke-width="1"/>
<polygon points="-769 -586 -762 -595 -750 -554 " stroke="black" fill="transparent" stroke-width="1"/>
<polygon points="-899 -683 -883 -669 -906 -705 " stroke="black" fill="transparent" stroke-width="1"/>
<polygon points="-695 -402 -677 -389 -699 -361 " stroke="black" fill="transparent" stroke-width="1"/>
<polygon points="-703 -379 -682 -408 -674 -379 " stroke="black" fill="transparent" stroke-width="1"/>
<polygon points="-907 -691 -927 -703 -888 -647 " stroke="black" fill="transparent" stroke-width="1"/>
<polygon points="-915 -510 -883 -502 -908 -565 " stroke="black" fill="transparent" stroke-width="1"/>
<polygon points="-945 -569 -953 -523 -923 -561 " stroke="black" fill="transparent" stroke-width="1"/>
<polygon points="-1055 -453 -1038 -500 -1067 -398 " stroke="black" fill="transparent" stroke-width="1"/>
<polygon points="-812 -590 -757 -580 -798 -568 " stroke="black" fill="transparent" stroke-width="1"/>
<polygon points="-692 -604 -745 -604 -701 -610 " stroke="black" fill="transparent" stroke-width="1"/>
<polygon points="-775 -563 -794 -584 -747 -569 " stroke="black" fill="transparent" stroke-width="1"/>
<polygon points="-706 -538 -689 -514 -689 -520 " stroke="black" fill="transparent" stroke-width="1"/>
<polygon points="-653 -539 -655 -507 -655 -501 " stroke="black" fill="transparent" stroke-width="1"/>
<polygon points="-782 -595 -788 -633 -791 -594 " stroke="black" fill="transparent" stroke-width="1"/>
<polygon points="-775 -607 -781 -629 -778 -590 " stroke="black" fill="transparent" stroke-width="1"/>
<polygon points="-810 -612 -790 -593 -789 -595 " stroke="black" fill="transparent" stroke-width="1"/>
<polygon points="-835 -518 -823 -544 -822 -552 " stroke="black" fill="transparent" stroke-width="1"/>
<polygon points="-656 -500 -664 -474 -665 -466 " stroke="black" fill="transparent" stroke-width="1"/>
<polygon points="-241 -653 -270 -668 -271 -654 " stroke="black" fill="transparent" stroke-width="1"/>
<polygon points="-321 -703 -262 -702 -254 -703 " stroke="black" fill="transparent" stroke-width="1"/>
<polygon points="-917 -532 -933 -568 -913 -546 " stroke="black" fill="transparent" stroke-width="1"/>
<polygon points="-998 -555 -996 -572 -978 -537 " stroke="black" fill="transparent" stroke-width="1"/>
<polygon points="-786 -520 -786 -508 -791 -512 " stroke="black" fill="transparent" stroke-width="1"/>
<polygon points="-791 -512 -818 -550 -786 -520 " stroke="black" fill="transparent" stroke-width="1"/>
<polygon points="-885 -570 -892 -580 -876 -538 " stroke="black" fill="transparent" stroke-width="1"/>
<polygon points="-875 -576 -888 -550 -879 -542 " stroke="black" fill="transparent" stroke-width="1"/>
<polygon points="-689 -352 -684 -347 -686 -356 " stroke="black" fill="transparent" stroke-width="1"/>
<polygon points="-901 196 -911 176 -912 177 " stroke="black" fill="transparent" stroke-width="1"/>
<polygon points="-667 -350 -666 -351 -661 -378 " stroke="black" fill="transparent" stroke-width="1"/>
<polygon points="-669 -359 -667 -350 -661 -378 " stroke="black" fill="transparent" stroke-width="1"/>
<polygon points="-676 -397 -669 -359 -661 -378 " stroke="black" fill="transparent" stroke-width="1"/>
<polygon points="-675 -400 -676 -397 -661 -378 " stroke="black" fill="transparent" stroke-width="1"/>
<polygon points="-753 -179 -765 -213 -766 -215 " stroke="black" fill="transparent" stroke-width="1"/>
<polygon points="-766 -222 -754 -191 -756 -207 " stroke="black" fill="transparent" stroke-width="1"/>
<polygon points="-661 -378 -660 -376 -650 -361 " stroke="black" fill="transparent" stroke-width="1"/>
<polygon points="-675 -400 -661 -378 -650 -361 " stroke="black" fill="transparent" stroke-width="1"/>
<polygon points="-669 -433 -675 -400 -650 -361 " stroke="black" fill="transparent" stroke-width="1"/>
<polygon points="-665 -466 -669 -433 -650 -361 " stroke="black" fill="transparent" stroke-width="1"/>
<polygon points="-656 -500 -665 -466 -650 -361 " stroke="black" fill="transparent" stroke-width="1"/>
<polygon points="-655 -501 -656 -500 -650 -361 " stroke="black" fill="transparent" stroke-width="1"/>
<polygon points="-693 -286 -672 -214 -690 -327 " stroke="black" fill="transparent" stroke-width="1"/>
<polygon points="-614 -380 -612 -420 -612 -423 " stroke="black" fill="transparent" stroke-width="1"/>
<polygon points="-762 -123 -732 -40 -748 -144 " stroke="black" fill="transparent" stroke-width="1"/>
<polygon points="-748 -144 -762 -127 -762 -123 " stroke="black" fill="transparent" stroke-width="1"/>
<polygon points="-765 -133 -747 -149 -769 -213 " stroke="black" fill="transparent" stroke-width="1"/>
<polygon points="-670 -200 -667 -153 -647 -90 " stroke="black" fill="transparent" stroke-width="1"/>
<polygon points="-647 -90 -669 -201 -670 -200 " stroke="black" fill="transparent" stroke-width="1"/>
<polygon points="-611 -295 -610 -296 -610 -299 " stroke="black" fill="transparent" stroke-width="1"/>
<polygon points="-936 -113 -936 -140 -955 -144 " stroke="black" fill="transparent" stroke-width="1"/>
<polygon points="-865 -73 -845 -73 -877 -103 " stroke="black" fill="transparent" stroke-width="1"/>
<polygon points="-712 40 -696 80 -711 30 " stroke="black" fill="transparent" stroke-width="1"/>
<polygon points="-711 30 -714 32 -712 40 " stroke="black" fill="transparent" stroke-width="1"/>
<polygon points="-745 -10 -739 -12 -741 -66 " stroke="black" fill="transparent" stroke-width="1"/>
<polygon points="-639 156 -694 138 -655 125 " stroke="black" fill="transparent" stroke-width="1"/>
<polygon points="-646 136 -683 148 -688 109 " stroke="black" fill="transparent" stroke-width="1"/>
<polygon points="-664 85 -665 120 -669 123 " stroke="black" fill="transparent" stroke-width="1"/>
<polygon points="-669 123 -680 110 -664 85 " stroke="black" fill="transparent" stroke-width="1"/>
<polygon points="-644 129 -669 105 -628 103 " stroke="black" fill="transparent" stroke-width="1"/>
<polygon points="-674 128 -700 107 -712 89 " stroke="black" fill="transparent" stroke-width="1"/>
<polygon points="-652 154 -668 110 -655 133 " stroke="black" fill="transparent" stroke-width="1"/>
<polygon points="-709 37 -702 99 -695 71 " stroke="black" fill="transparent" stroke-width="1"/>
<polygon points="-695 71 -711 17 -709 37 " stroke="black" fill="transparent" stroke-width="1"/>
<polygon points="-478 -427 -491 -510 -432 -466 " stroke="black" fill="transparent" stroke-width="1"/>
<polygon points="-587 -346 -597 -383 -573 -313 " stroke="black" fill="transparent" stroke-width="1"/>
<polygon points="-663 -348 -663 -336 -646 -304 " stroke="black" fill="transparent" stroke-width="1"/>
<polygon points="-1001 -356 -975 -412 -1000 -361 " stroke="black" fill="transparent" stroke-width="1"/>
<polygon points="-574 -69 -531 -60 -519 -69 " stroke="black" fill="transparent" stroke-width="1"/>
<polygon points="-993 -18 -967 -10 -1019 -77 " stroke="black" fill="transparent" stroke-width="1"/>
<polygon points="-967 -10 -1027 -94 -1019 -77 " stroke="black" fill="transparent" stroke-width="1"/>
<polygon points="-435 -150 -472 -148 -485 -143 " stroke="black" fill="transparent" stroke-width="1"/>
<polygon points="-485 -143 -481 -115 -435 -150 " stroke="black" fill="transparent" stroke-width="1"/>
<polygon points="-615 -292 -616 -315 -621 -327 " stroke="black" fill="transparent" stroke-width="1"/>
<polygon points="-614 -207 -607 -207 -628 -305 " stroke="black" fill="transparent" stroke-width="1"/>
<polygon points="-607 -207 -606 -211 -628 -305 " stroke="black" fill="transparent" stroke-width="1"/>
<polygon points="-606 -211 -609 -275 -628 -305 " stroke="black" fill="transparent" stroke-width="1"/>
<polygon points="-609 -275 -633 -317 -628 -305 " stroke="black" fill="transparent" stroke-width="1"/>
<polygon points="-609 -275 -650 -361 -633 -317 " stroke="black" fill="transparent" stroke-width="1"/>
<polygon points="-609 -275 -611 -295 -650 -361 " stroke="black" fill="transparent" stroke-width="1"/>
<polygon points="-611 -295 -610 -299 -650 -361 " stroke="black" fill="transparent" stroke-width="1"/>
<polygon points="-610 -299 -614 -380 -650 -361 " stroke="black" fill="transparent" stroke-width="1"/>
<polygon points="-614 -380 -612 -423 -650 -361 " stroke="black" fill="transparent" stroke-width="1"/>
<polygon points="-612 -423 -655 -501 -650 -361 " stroke="black" fill="transparent" stroke-width="1"/>
<polygon points="-612 -423 -653 -539 -655 -501 " stroke="black" fill="transparent" stroke-width="1"/>
<polygon points="-612 -423 -660 -607 -653 -539 " stroke="black" fill="transparent" stroke-width="1"/>
<polygon points="-612 -423 -622 -625 -660 -607 " stroke="black" fill="transparent" stroke-width="1"/>
<polygon points="-622 -625 -620 -659 -660 -607 " stroke="black" fill="transparent" stroke-width="1"/>
<polygon points="-620 -659 -638 -640 -660 -607 " stroke="black" fill="transparent" stroke-width="1"/>
<polygon points="-620 -659 -591 -691 -638 -640 " stroke="black" fill="transparent" stroke-width="1"/>
<polygon points="-620 -659 -619 -659 -591 -691 " stroke="black" fill="transparent" stroke-width="1"/>
<polygon points="-619 -659 -602 -654 -591 -691 " stroke="black" fill="transparent" stroke-width="1"/>
<polygon points="-602 -654 -600 -653 -591 -691 " stroke="black" fill="transparent" stroke-width="1"/>
<polygon points="-600 -653 -580 -636 -591 -691 " stroke="black" fill="transparent" stroke-width="1"/>
<polygon points="-580 -636 -561 -615 -591 -691 " stroke="black" fill="transparent" stroke-width="1"/>
<polygon points="-580 -636 -562 -613 -561 -615 " stroke="black" fill="transparent" stroke-width="1"/>
<polygon points="-562 -613 -561 -614 -561 -615 " stroke="black" fill="transparent" stroke-width="1"/>
<polygon points="125 425 85 428 84 427 " stroke="black" fill="transparent" stroke-width="1"/>
<polygon points="84 427 129 398 125 425 " stroke="black" fill="transparent" stroke-width="1"/>
</svg>