<svg width="1902.69" height="1518.8" viewBox="-815.302 -862.623 1902.69 1518.8" xmlns="http://www.w3.org/2000/svg">
<polygon points="-54.2316 -290.037 -46.5449 -353.307 0.131832 -303.308 " stroke="black" stroke-width="1" fill="transparent"/>
<polygon points="-193.61 -237.692 -147.936 -183.661 -186.126 -215.866 " stroke="black" stroke-width="1" fill="transparent"/>
<polygon points="-109.58 -308.476 -77.1358 -264.261 -83.5847 -253.097 " stroke="black" stroke-width="1" fill="transparent"/>
<polygon points="-164.665 -167.72 -123.092 -120.807 -86.7255 -119.093 " stroke="black" stroke-width="1" fill="transparent"/>
<polygon points="-151.467 -100.552 -87.3649 -59.813 -117.833 -92.4261 " stroke="black" stroke-width="1" fill="transparent"/>
<polygon points="-95.4172 -22.5124 -55.5516 -5.60466 -126.903 -46.0856 " stroke="black" stroke-width="1" fill="transparent"/>
<polygon points="-36.2937 -9.9961 -75.3881 -29.9597 -9.79368 31.5329 " stroke="black" stroke-width="1" fill="transparent"/>
<polygon points="24.2778 60.0178 -47.0732 27.4275 -17.2091 56.6835 " stroke="black" stroke-width="1" fill="transparent"/>
<polygon points="7.53157 99.5651 -38.6929 103.161 34.655 109.197 " stroke="black" stroke-width="1" fill="transparent"/>
<polygon points="59.5163 123.134 -0.772562 137.568 29.6873 134.389 " stroke="black" stroke-width="1" fill="transparent"/>
<polygon points="58.8365 130.313 1.27349 148.706 -1.72285 156.704 " stroke="black" stroke-width="1" fill="transparent"/>
<polygon points="-20.3983 141.562 44.9323 111.23 66.5399 84.4558 " stroke="black" stroke-width="1" fill="transparent"/>
<polygon points="47.3011 115.693 182.495 43.0721 69.1642 88.7696 " stroke="black" stroke-width="1" fill="transparent"/>
<polygon points="115.681 126.32 86.9894 130.686 103.14 159.862 " stroke="black" stroke-width="1" fill="transparent"/>
<polygon points="90.854 146.846 210.595 122.476 91.3374 119.358 " stroke="black" stroke-width="1" fill="transparent"/>
<polygon points="25.786 39.0845 60.0507 107.828 73.8181 50.946 " stroke="black" stroke-width="1" fill="transparent"/>
<polygon points="56.4193 70.7034 50.901 125.262 77.451 129.876 " stroke="black" stroke-width="1" fill="transparent"/>
<polygon points="-110.28 55.5294 -115.466 58.9118 -43.3633 74.5826 " stroke="black" stroke-width="1" fill="transparent"/>
<polygon points="-109.699 113.599 -41.6586 115.631 4.66827 111.319 " stroke="black" stroke-width="1" fill="transparent"/>
<polygon points="-3.0874 220.565 -74.9753 269.942 32.3486 196.548 " stroke="black" stroke-width="1" fill="transparent"/>
<polygon points="15.5291 192.842 -25.0844 227.283 13.9291 193.099 " stroke="black" stroke-width="1" fill="transparent"/>
<polygon points="11.3276 186.813 -95.9052 282.184 -29.074 222.218 " stroke="black" stroke-width="1" fill="transparent"/>
<polygon points="12.6705 161.779 -108.266 268.372 -0.147572 171.734 " stroke="black" stroke-width="1" fill="transparent"/>
<polygon points="-112.251 -14.2711 -5.51359 7.93549 -82.2347 -39.7445 " stroke="black" stroke-width="1" fill="transparent"/>
<polygon points="-96.1518 -146.041 -29.1004 -86.936 -43.6658 -122.217 " stroke="black" stroke-width="1" fill="transparent"/>
<polygon points="-40.629 -51.8993 -24.1311 -20.8743 -16.591 -33.536 " stroke="black" stroke-width="1" fill="transparent"/>
<polygon points="-56.1953 -410.174 -39.4378 -378.852 -28.7209 -352.301 " stroke="black" stroke-width="1" fill="transparent"/>
<polygon points="-60.4073 -407.276 -75.6467 -443.461 -41.0632 -377.116 " stroke="black" stroke-width="1" fill="transparent"/>
<polygon points="800.934 -144.232 791.957 -125.295 792.707 -165.826 " stroke="black" stroke-width="1" fill="transparent"/>
<polygon points="688.818 -68.9315 725.339 -59.5931 722.785 -20.1386 " stroke="black" stroke-width="1" fill="transparent"/>
<polygon points="93.6772 4.16179 64.1449 10.8531 73.8288 1.74521 " stroke="black" stroke-width="1" fill="transparent"/>
<polygon points="-43.8627 285.59 -21.5372 309.294 -94.6572 351.393 " stroke="black" stroke-width="1" fill="transparent"/>
<polygon points="35.1363 376.455 10.725 354.589 40.7379 305.988 " stroke="black" stroke-width="1" fill="transparent"/>
<polygon points="-96.183 348.444 -23.0858 306.294 -40.869 328.052 " stroke="black" stroke-width="1" fill="transparent"/>
<polygon points="191.792 39.9529 183.777 27.5598 168.16 22.9167 " stroke="black" stroke-width="1" fill="transparent"/>
<polygon points="130.627 56.0331 114.315 25.5598 63.1192 62.8234 " stroke="black" stroke-width="1" fill="transparent"/>
<polygon points="337.054 -632.288 320.047 -597.935 339.713 -629.053 " stroke="black" stroke-width="1" fill="transparent"/>
<polygon points="270.432 -650.536 279.206 -695.89 289.351 -681.624 " stroke="black" stroke-width="1" fill="transparent"/>
<polygon points="304.662 -722.532 319.167 -743.024 305.151 -714.256 " stroke="black" stroke-width="1" fill="transparent"/>
<polygon points="356.318 -447.546 368.175 -465.989 364.076 -452.996 " stroke="black" stroke-width="1" fill="transparent"/>
<polygon points="351.81 -574.347 410.899 -586.571 403.276 -579.104 " stroke="black" stroke-width="1" fill="transparent"/>
<polygon points="472.929 -463.569 501.252 -474.161 487.524 -460.695 " stroke="black" stroke-width="1" fill="transparent"/>
<polygon points="546.053 -179.263 558.067 -214.206 499.69 -230.617 " stroke="black" stroke-width="1" fill="transparent"/>
<polygon points="1014.67 7.19018 1087.39 -37.3744 1049.92 -143.495 " stroke="black" stroke-width="1" fill="transparent"/>
<polygon points="115.919 23.612 16.2432 22.0455 64.0513 57.1521 " stroke="black" stroke-width="1" fill="transparent"/>
<polygon points="97.8517 -30.7983 29.4348 13.5802 127.906 23.0697 " stroke="black" stroke-width="1" fill="transparent"/>
<polygon points="-13.3143 -161.786 -16.7498 -104.267 63.6032 -115.562 " stroke="black" stroke-width="1" fill="transparent"/>
<polygon points="46.7913 -191.656 49.732 -231.601 -22.8039 -251.525 " stroke="black" stroke-width="1" fill="transparent"/>
<polygon points="97.9924 -25.1926 129.035 27.9193 115.228 -57.7306 " stroke="black" stroke-width="1" fill="transparent"/>
<polygon points="90.0111 -76.4707 55.2852 -98.79 58.2423 -60.3716 " stroke="black" stroke-width="1" fill="transparent"/>
<polygon points="448.074 287.975 462.958 247.685 465.589 269.631 " stroke="black" stroke-width="1" fill="transparent"/>
<polygon points="-193.158 -281.928 -191.544 -258.061 -219.416 -312.697 " stroke="black" stroke-width="1" fill="transparent"/>
<polygon points="-195.195 -86.4864 -120.778 -57.6776 -179.02 -93.5785 " stroke="black" stroke-width="1" fill="transparent"/>
<polygon points="-51.5172 36.1732 -144.09 32.2442 -77.8605 57.4982 " stroke="black" stroke-width="1" fill="transparent"/>
<polygon points="-0.969202 110.547 -49.235 136.143 47.884 127.644 " stroke="black" stroke-width="1" fill="transparent"/>
<polygon points="126.346 177.212 178.103 182.171 125.745 157.387 " stroke="black" stroke-width="1" fill="transparent"/>
<polygon points="106.101 176.891 106.357 158.281 42.7696 130.886 " stroke="black" stroke-width="1" fill="transparent"/>
<polygon points="135.382 -86.4963 86.4312 -71.9368 150.624 -45.6991 " stroke="black" stroke-width="1" fill="transparent"/>
<polygon points="135.163 9.87331 150.379 6.23712 112.066 -31.8655 " stroke="black" stroke-width="1" fill="transparent"/>
<polygon points="69.8544 -61.8303 104.921 -20.4186 88.429 -53.8233 " stroke="black" stroke-width="1" fill="transparent"/>
<polygon points="433.631 220.129 428.339 171.213 393.94 202.039 " stroke="black" stroke-width="1" fill="transparent"/>
<polygon points="384.441 142.034 435.206 162.512 470.956 133.985 " stroke="black" stroke-width="1" fill="transparent"/>
<polygon points="100.548 -124.994 67.1245 -187.389 83.415 -139.467 " stroke="black" stroke-width="1" fill="transparent"/>
<polygon points="13.7905 -236.319 35.643 -169.145 25.2919 -216.37 " stroke="black" stroke-width="1" fill="transparent"/>
<polygon points="43.6768 -344.078 2.16078 -298.72 -39.5973 -345.882 " stroke="black" stroke-width="1" fill="transparent"/>
<polygon points="-93.04 -302.672 -50.8009 -358.193 -81.9263 -313.541 " stroke="black" stroke-width="1" fill="transparent"/>
<polygon points="-146.381 -238.291 -151.538 -211.899 -103.431 -253.576 " stroke="black" stroke-width="1" fill="transparent"/>
<polygon points="-198.407 -192.537 -162.658 -194.852 -158.317 -219.823 " stroke="black" stroke-width="1" fill="transparent"/>
<polygon points="-259.195 -75.2076 -271.605 -43.6788 -225.36 -57.3058 " stroke="black" stroke-width="1" fill="transparent"/>
<polygon points="-280.972 20.7504 -268.717 -6.5992 -319.846 9.27466 " stroke="black" stroke-width="1" fill="transparent"/>
<polygon points="-262.392 81.9037 -274.054 58.3517 -313.077 87.695 " stroke="black" stroke-width="1" fill="transparent"/>
<polygon points="-258.149 87.5366 -233.828 43.5378 -267.293 60.862 " stroke="black" stroke-width="1" fill="transparent"/>
<polygon points="-146.107 105.824 -191.16 89.0057 -180.755 114.56 " stroke="black" stroke-width="1" fill="transparent"/>
<polygon points="-339.017 62.8429 -300.511 29.7973 -374.833 40.52 " stroke="black" stroke-width="1" fill="transparent"/>
<polygon points="-253.225 -19.6336 -313.247 19.6518 -239.356 3.32655 " stroke="black" stroke-width="1" fill="transparent"/>
<polygon points="-393.814 30.8927 -376.402 57.1904 -314.472 23.5328 " stroke="black" stroke-width="1" fill="transparent"/>
<polygon points="-259.129 -72.1204 -225.335 -52.7132 -192.029 -77.5329 " stroke="black" stroke-width="1" fill="transparent"/>
<polygon points="-237.638 -78.133 -258.897 -23.1333 -191.807 -29.1971 " stroke="black" stroke-width="1" fill="transparent"/>
<polygon points="-137.795 -338.469 -101.494 -353.793 -73.0424 -392.898 " stroke="black" stroke-width="1" fill="transparent"/>
<polygon points="-335.752 -61.4796 -269.267 -81.983 -317.996 -90.537 " stroke="black" stroke-width="1" fill="transparent"/>
<polygon points="0.602397 -280.475 34.417 -261.127 -43.9314 -254.691 " stroke="black" stroke-width="1" fill="transparent"/>
<polygon points="-102.315 -428.185 -60.4215 -424.572 -54.6143 -395.111 " stroke="black" stroke-width="1" fill="transparent"/>
<polygon points="-31.4225 -272.732 -73.7037 -274.708 -75.5453 -299.395 " stroke="black" stroke-width="1" fill="transparent"/>
<polygon points="331.456 -557.421 342.619 -633.809 371.491 -587.46 " stroke="black" stroke-width="1" fill="transparent"/>
<polygon points="211.682 -508.391 152.038 -543.82 229.51 -585.225 " stroke="black" stroke-width="1" fill="transparent"/>
<polygon points="250.341 -782.642 316.754 -803.285 254.39 -757.794 " stroke="black" stroke-width="1" fill="transparent"/>
<polygon points="395.217 -848.45 382.959 -834.724 378.008 -862.623 " stroke="black" stroke-width="1" fill="transparent"/>
<polygon points="421.024 -830.167 429.513 -804.395 374.242 -818.947 " stroke="black" stroke-width="1" fill="transparent"/>
<polygon points="-60.4167 -424.577 -27.8455 -417.743 -54.6104 -395.117 " stroke="black" stroke-width="1" fill="transparent"/>
<polygon points="26.8446 -419.325 30.264 -462.75 59.0555 -433.411 " stroke="black" stroke-width="1" fill="transparent"/>
<polygon points="58.9237 -401.425 64.4305 -428.824 95.8752 -434.598 " stroke="black" stroke-width="1" fill="transparent"/>
<polygon points="38.0739 -311.604 20.3358 -279.417 6.58264 -257.789 " stroke="black" stroke-width="1" fill="transparent"/>
<polygon points="-295.5 -123.381 -245.786 -169.815 -246.44 -149.825 " stroke="black" stroke-width="1" fill="transparent"/>
<polygon points="-267.539 -124.002 -266.332 -142.254 -213.976 -191.495 " stroke="black" stroke-width="1" fill="transparent"/>
<polygon points="65.4546 -231.743 0.399849 -266.82 55.3084 -272.351 " stroke="black" stroke-width="1" fill="transparent"/>
<polygon points="100.884 -197.783 154.819 -164.762 125.847 -127.999 " stroke="black" stroke-width="1" fill="transparent"/>
<polygon points="94.1167 -88.6686 121.134 -121.216 120.082 -83.2818 " stroke="black" stroke-width="1" fill="transparent"/>
<polygon points="207.839 -223.599 208.587 -258.893 200.609 -202.038 " stroke="black" stroke-width="1" fill="transparent"/>
<polygon points="200.221 -96.0339 222.707 -59.394 181.179 -42.2458 " stroke="black" stroke-width="1" fill="transparent"/>
<polygon points="237.586 -135.707 247.566 -162.11 233.103 -172.651 " stroke="black" stroke-width="1" fill="transparent"/>
<polygon points="236.871 -193.738 231.19 -164.786 243.226 -156.998 " stroke="black" stroke-width="1" fill="transparent"/>
<polygon points="227.478 -133.562 226.807 -158.971 229.8 -220.34 " stroke="black" stroke-width="1" fill="transparent"/>
<polygon points="230.611 -150.992 229.534 -238.86 226.637 -220.727 " stroke="black" stroke-width="1" fill="transparent"/>
<polygon points="200.97 -248.472 215.941 -270.851 197.948 -280.701 " stroke="black" stroke-width="1" fill="transparent"/>
<polygon points="100.028 -289.635 134.105 -291.704 127.858 -327.811 " stroke="black" stroke-width="1" fill="transparent"/>
<polygon points="39.2029 -281.413 61.6916 -242.853 87.7006 -288.919 " stroke="black" stroke-width="1" fill="transparent"/>
<polygon points="31.475 -268.535 5.03343 -219.432 54.5046 -228.037 " stroke="black" stroke-width="1" fill="transparent"/>
<polygon points="99.3908 -50.218 124.857 -42.9192 124.604 47.5884 " stroke="black" stroke-width="1" fill="transparent"/>
<polygon points="187.071 31.2599 183.804 -42.7612 237.872 8.78655 " stroke="black" stroke-width="1" fill="transparent"/>
<polygon points="192.567 11.7912 242.599 -12.2193 226.455 44.9783 " stroke="black" stroke-width="1" fill="transparent"/>
<polygon points="257.087 21.3361 275.909 -35.8036 284.384 -16.7232 " stroke="black" stroke-width="1" fill="transparent"/>
<polygon points="286.442 8.18954 272.065 -3.79281 297.092 -43.9136 " stroke="black" stroke-width="1" fill="transparent"/>
<polygon points="278.405 -3.57415 314.122 -53.1565 306.991 -99.7103 " stroke="black" stroke-width="1" fill="transparent"/>
<polygon points="225.365 -49.699 266.004 -27.8919 279.462 -127.561 " stroke="black" stroke-width="1" fill="transparent"/>
<polygon points="216.563 -94.4457 195.725 -20.2235 250.115 -101.098 " stroke="black" stroke-width="1" fill="transparent"/>
<polygon points="134.379 -5.40442 179.283 7.71701 195.473 -64.42 " stroke="black" stroke-width="1" fill="transparent"/>
<polygon points="128.191 -20.0757 123.135 32.7719 179.506 -21.3562 " stroke="black" stroke-width="1" fill="transparent"/>
<polygon points="125.124 58.715 127.146 12.1396 110.128 150.158 " stroke="black" stroke-width="1" fill="transparent"/>
<polygon points="137.96 -46.0668 181.655 1.32036 162.69 30.4634 " stroke="black" stroke-width="1" fill="transparent"/>
<polygon points="215.635 -23.0789 242.597 40.7766 196.211 8.66938 " stroke="black" stroke-width="1" fill="transparent"/>
<polygon points="271.062 -9.87849 287.364 2.46528 273.671 35.546 " stroke="black" stroke-width="1" fill="transparent"/>
<polygon points="291.869 70.2982 255.969 49.4974 267.813 17.9132 " stroke="black" stroke-width="1" fill="transparent"/>
<polygon points="267.901 121.068 256.369 53.0514 295.979 78.5456 " stroke="black" stroke-width="1" fill="transparent"/>
<polygon points="367.643 55.301 385.46 1.13361 376.899 11.9595 " stroke="black" stroke-width="1" fill="transparent"/>
<polygon points="318.742 118.184 330.177 78.6289 347.156 36.0454 " stroke="black" stroke-width="1" fill="transparent"/>
<polygon points="363.803 23.6665 339.779 97.237 339.321 111.455 " stroke="black" stroke-width="1" fill="transparent"/>
<polygon points="376.63 -6.72681 316.618 90.8593 345.511 88.2887 " stroke="black" stroke-width="1" fill="transparent"/>
<polygon points="341.9 121.844 366.416 200.682 370.521 117.244 " stroke="black" stroke-width="1" fill="transparent"/>
<polygon points="514.583 39.4246 464.986 -1.94732 504.287 56.6295 " stroke="black" stroke-width="1" fill="transparent"/>
<polygon points="502.283 96.6813 495.376 69.5338 480.976 80.2074 " stroke="black" stroke-width="1" fill="transparent"/>
<polygon points="333.987 -540.52 330.589 -486.647 316.795 -559.712 " stroke="black" stroke-width="1" fill="transparent"/>
<polygon points="406.54 302.628 393.876 380.83 416.026 419.282 " stroke="black" stroke-width="1" fill="transparent"/>
<polygon points="652.942 196.353 682.69 165.763 638.235 166.306 " stroke="black" stroke-width="1" fill="transparent"/>
<polygon points="661.203 -84.5463 618.002 -56.2212 608.128 -78.6319 " stroke="black" stroke-width="1" fill="transparent"/>
<polygon points="364.289 132.477 366.087 120.824 353.836 164.367 " stroke="black" stroke-width="1" fill="transparent"/>
<polygon points="234.641 91.3254 257.696 44.5837 216.397 167.463 " stroke="black" stroke-width="1" fill="transparent"/>
<polygon points="214.475 388.706 279.684 336.481 237.91 405.618 " stroke="black" stroke-width="1" fill="transparent"/>
<polygon points="395.447 656.177 409.029 628.116 436.723 648.561 " stroke="black" stroke-width="1" fill="transparent"/>
<polygon points="250.36 -56.7969 214.947 -3.75368 281.234 -11.235 " stroke="black" stroke-width="1" fill="transparent"/>
<polygon points="223.968 -51.6614 185.983 -39.2592 166.006 21.6429 " stroke="black" stroke-width="1" fill="transparent"/>
<polygon points="196.462 -84.0141 190.223 -46.1596 228.126 -57.6339 " stroke="black" stroke-width="1" fill="transparent"/>
<polygon points="174.634 -13.4283 181.502 -57.0618 148.936 -13.2447 " stroke="black" stroke-width="1" fill="transparent"/>
<polygon points="200.537 53.8908 196.788 25.5271 211.601 75.889 " stroke="black" stroke-width="1" fill="transparent"/>
<polygon points="208.142 72.9948 199.385 155.068 196.954 51.1645 " stroke="black" stroke-width="1" fill="transparent"/>
<polygon points="199.224 63.1315 218.438 120.059 191.73 143.939 " stroke="black" stroke-width="1" fill="transparent"/>
<polygon points="198.193 107.223 211.968 130.059 171.455 131.224 " stroke="black" stroke-width="1" fill="transparent"/>
<polygon points="147.751 20.464 167.002 18.8128 186.572 -40.9968 " stroke="black" stroke-width="1" fill="transparent"/>
<polygon points="144.921 27.8461 184.94 -37.0913 83.2056 30.0417 " stroke="black" stroke-width="1" fill="transparent"/>
<polygon points="155.369 -30.1413 80.4923 51.3899 181.263 -27.3869 " stroke="black" stroke-width="1" fill="transparent"/>
<polygon points="192.022 -70.3443 133.572 17.2971 145.373 -1.54392 " stroke="black" stroke-width="1" fill="transparent"/>
<polygon points="154.124 186.553 99.2561 205.548 77.6195 263.573 " stroke="black" stroke-width="1" fill="transparent"/>
<polygon points="96.4529 -65.8812 124.755 -86.5958 188.161 -44.4043 " stroke="black" stroke-width="1" fill="transparent"/>
<polygon points="187.942 -80.583 169.385 -67.6971 95.1787 -93.6047 " stroke="black" stroke-width="1" fill="transparent"/>
<polygon points="107.67 11.976 120.499 8.71007 144.133 68.5874 " stroke="black" stroke-width="1" fill="transparent"/>
<polygon points="71.4958 71.9358 51.9854 7.03123 85.5589 117.689 " stroke="black" stroke-width="1" fill="transparent"/>
<polygon points="68.8957 175.855 62.4526 169.931 58.3588 126.971 " stroke="black" stroke-width="1" fill="transparent"/>
<polygon points="-40.0946 241.579 -25.3886 186.151 -25.337 200.981 " stroke="black" stroke-width="1" fill="transparent"/>
<polygon points="-23.0688 182.863 -37.341 238.476 -37.0017 221.355 " stroke="black" stroke-width="1" fill="transparent"/>
<polygon points="-123.608 130.99 -140.51 132.587 -113.699 98.7733 " stroke="black" stroke-width="1" fill="transparent"/>
<polygon points="-124.956 70.911 -151.717 105.155 -212.174 107.438 " stroke="black" stroke-width="1" fill="transparent"/>
<polygon points="-73.0172 88.0771 -128.796 150.027 -95.6392 139.275 " stroke="black" stroke-width="1" fill="transparent"/>
<polygon points="-95.7904 207.513 -77.2276 232.529 -61.618 198.82 " stroke="black" stroke-width="1" fill="transparent"/>
<polygon points="-67.5779 42.6176 -71.3718 -15.5677 -93.7031 -7.23498 " stroke="black" stroke-width="1" fill="transparent"/>
<polygon points="-78.7326 -452.129 -47.9992 -465.585 -118.332 -484.241 " stroke="black" stroke-width="1" fill="transparent"/>
<polygon points="-31.044 -355.584 -71.6408 -439.09 -103.02 -427.729 " stroke="black" stroke-width="1" fill="transparent"/>
<polygon points="55.8177 -472.452 5.93158 -499.387 49.6641 -418.619 " stroke="black" stroke-width="1" fill="transparent"/>
<polygon points="127.056 -500.185 120.749 -446.378 152.903 -425.864 " stroke="black" stroke-width="1" fill="transparent"/>
<polygon points="-36.7293 -175.168 7.96403 -150.52 37.1109 -168.534 " stroke="black" stroke-width="1" fill="transparent"/>
<polygon points="-35.5424 -55.1921 -76.6347 -24.3471 -53.3032 15.4282 " stroke="black" stroke-width="1" fill="transparent"/>
<polygon points="-9.02923 -287.241 -7.37253 -260.458 8.13396 -283.275 " stroke="black" stroke-width="1" fill="transparent"/>
<polygon points="-162.087 -43.8243 -160.002 -80.6562 -185.72 -37.5428 " stroke="black" stroke-width="1" fill="transparent"/>
<polygon points="-125.763 -397.396 -121.23 -394.063 -123.494 -402.701 " stroke="black" stroke-width="1" fill="transparent"/>
<polygon points="-241.524 -314.307 -219.037 -306.635 -243.785 -332.617 " stroke="black" stroke-width="1" fill="transparent"/>
<polygon points="31.2441 -316.946 61.9341 -334.313 85.2393 -356.741 " stroke="black" stroke-width="1" fill="transparent"/>
<polygon points="118.645 -215.343 115.348 -204.076 42.4447 -205.856 " stroke="black" stroke-width="1" fill="transparent"/>
<polygon points="79.0614 -178.127 77.8613 -184.893 141.059 -155.644 " stroke="black" stroke-width="1" fill="transparent"/>
<polygon points="148.693 -138.791 93.7204 -147.791 88.4157 -164.972 " stroke="black" stroke-width="1" fill="transparent"/>
<polygon points="63.4811 -284.739 38.1999 -284.057 82.7592 -344.442 " stroke="black" stroke-width="1" fill="transparent"/>
<polygon points="42.3576 -22.7725 8.93805 -73.5846 2.6413 -131.803 " stroke="black" stroke-width="1" fill="transparent"/>
<polygon points="37.2613 51.2793 28.0639 -45.101 58.8762 8.29152 " stroke="black" stroke-width="1" fill="transparent"/>
<polygon points="11.9203 37.1636 -12.4226 3.79811 -5.85114 -62.0921 " stroke="black" stroke-width="1" fill="transparent"/>
<polygon points="0.9741 -47.5285 -1.47904 -26.8582 -26.5548 -63.1272 " stroke="black" stroke-width="1" fill="transparent"/>
<polygon points="134.059 -32.3302 167.829 41.6702 115.857 17.8962 " stroke="black" stroke-width="1" fill="transparent"/>
<polygon points="114.577 -62.0968 89.9228 -40.4681 57.3587 -82.7515 " stroke="black" stroke-width="1" fill="transparent"/>
<polygon points="59.4843 -48.222 18.3491 -57.1956 17.2024 -87.6751 " stroke="black" stroke-width="1" fill="transparent"/>
<polygon points="54.4469 -98.0512 55.652 -74.3331 13.3916 -91.8043 " stroke="black" stroke-width="1" fill="transparent"/>
<polygon points="77.75 -124.779 150.004 -123.447 72.7433 -93.9025 " stroke="black" stroke-width="1" fill="transparent"/>
<polygon points="143.76 -169.768 137.086 -139.172 68.6695 -125.666 " stroke="black" stroke-width="1" fill="transparent"/>
<polygon points="-93.9816 -317.857 -80.781 -329.482 -26.7386 -239.434 " stroke="black" stroke-width="1" fill="transparent"/>
<polygon points="-32.5397 -249.046 -69.874 -319.412 -6.50219 -237.582 " stroke="black" stroke-width="1" fill="transparent"/>
<polygon points="-102.898 -213.278 -116.39 -216.449 -154.858 -276.154 " stroke="black" stroke-width="1" fill="transparent"/>
<polygon points="-85.2958 -227.277 -76.7437 -215.472 -42.2512 -130.331 " stroke="black" stroke-width="1" fill="transparent"/>
<polygon points="18.6073 -190.092 19.9314 -130.6 -4.88222 -208.232 " stroke="black" stroke-width="1" fill="transparent"/>
<polygon points="-50.128 -164.345 -54.3255 -156.213 -85.9598 -238.92 " stroke="black" stroke-width="1" fill="transparent"/>
<polygon points="-52.8292 -120.842 -57.4083 -117.11 -59.7692 -42.9211 " stroke="black" stroke-width="1" fill="transparent"/>
<polygon points="-87.9313 -121.776 -83.4494 -46.2474 -57.5663 -61.0675 " stroke="black" stroke-width="1" fill="transparent"/>
<polygon points="-81.8155 -57.5702 -47.3109 -22.6744 -59.67 -67.4393 " stroke="black" stroke-width="1" fill="transparent"/>
<polygon points="-42.788 -64.5518 -67.5285 -66.2653 -47.3143 -41.9203 " stroke="black" stroke-width="1" fill="transparent"/>
<polygon points="-42.798 -64.5716 -47.1554 -42.1531 -1.02366 -31.507 " stroke="black" stroke-width="1" fill="transparent"/>
<polygon points="-46.3697 -64.4677 6.358 -84.7471 69.8307 -121.384 " stroke="black" stroke-width="1" fill="transparent"/>
<polygon points="101.583 -320.546 75.8642 -266.933 85.2646 -294.42 " stroke="black" stroke-width="1" fill="transparent"/>
<polygon points="14.0996 -363.076 34.8835 -316.084 58.5978 -376.377 " stroke="black" stroke-width="1" fill="transparent"/>
<polygon points="114.892 -161.094 126.443 -125.678 120.662 -197.219 " stroke="black" stroke-width="1" fill="transparent"/>
<polygon points="100.644 -249.125 48.9239 -232.536 95.1498 -210.685 " stroke="black" stroke-width="1" fill="transparent"/>
<polygon points="25.3971 -173.335 -42.1509 -192.456 -55.6817 -143.964 " stroke="black" stroke-width="1" fill="transparent"/>
<polygon points="-1.61276 -282.893 -32.7154 -234.331 34.943 -215.401 " stroke="black" stroke-width="1" fill="transparent"/>
<polygon points="-76.8993 -206.529 -43.5383 -260.405 -96.8201 -268.074 " stroke="black" stroke-width="1" fill="transparent"/>
<polygon points="-40.9132 -335.334 -99.7515 -258.921 -46.5001 -251.321 " stroke="black" stroke-width="1" fill="transparent"/>
<polygon points="-373.026 195.216 -427.421 270.008 -414.788 235.782 " stroke="black" stroke-width="1" fill="transparent"/>
<polygon points="-358.45 285.438 -401.382 312.168 -347.896 237.971 " stroke="black" stroke-width="1" fill="transparent"/>
<polygon points="-372.815 195.571 -414.593 236.118 -375.029 181.109 " stroke="black" stroke-width="1" fill="transparent"/>
<polygon points="-194.112 -245.449 -207.036 -197.466 -172.284 -180.624 " stroke="black" stroke-width="1" fill="transparent"/>
<polygon points="-342.882 204.48 -366.795 246.212 -388.796 229.454 " stroke="black" stroke-width="1" fill="transparent"/>
<polygon points="-22.854 -203.702 -60.0008 -166.586 -33.4143 -158.085 " stroke="black" stroke-width="1" fill="transparent"/>
<polygon points="-183.539 -102.476 -131.117 -91.3688 -82.1515 -134.945 " stroke="black" stroke-width="1" fill="transparent"/>
<polygon points="-130.015 -14.9267 -100.018 13.5443 -140.604 -20.8979 " stroke="black" stroke-width="1" fill="transparent"/>
<polygon points="-180.496 -22.8864 -182.531 -24.83 -245.13 -25.4476 " stroke="black" stroke-width="1" fill="transparent"/>
<polygon points="-242.837 -13.7197 -175.57 1.5508 -236.838 -11.6025 " stroke="black" stroke-width="1" fill="transparent"/>
<polygon points="-262.145 -3.02997 -252.219 -1.51769 -310.978 -6.61079 " stroke="black" stroke-width="1" fill="transparent"/>
<polygon points="-193.847 -74.7274 -91.9879 -108.073 -125.033 -136.296 " stroke="black" stroke-width="1" fill="transparent"/>
<polygon points="-352.863 213.084 -383.258 237.918 -323.653 225.135 " stroke="black" stroke-width="1" fill="transparent"/>
<polygon points="-420.784 253.386 -380.086 247.888 -349.572 223.075 " stroke="black" stroke-width="1" fill="transparent"/>
<polygon points="-445.749 243.271 -419.548 256.648 -348.392 226.415 " stroke="black" stroke-width="1" fill="transparent"/>
<polygon points="-445.814 263.658 -415.401 264.338 -442.076 251.293 " stroke="black" stroke-width="1" fill="transparent"/>
<polygon points="-449.504 256.028 -445.734 243.648 -484.766 220.036 " stroke="black" stroke-width="1" fill="transparent"/>
<polygon points="-467.931 235.596 -430.921 261.306 -463.527 232.021 " stroke="black" stroke-width="1" fill="transparent"/>
<polygon points="-441.441 252.453 -344.539 236.033 -398.462 201.475 " stroke="black" stroke-width="1" fill="transparent"/>
<polygon points="-293.906 178.858 -358.536 199.27 -329.452 211.401 " stroke="black" stroke-width="1" fill="transparent"/>
<polygon points="-275.59 232.482 -249.066 201.841 -338.97 251.416 " stroke="black" stroke-width="1" fill="transparent"/>
<polygon points="-22.1706 -57.1372 -42.9929 -75.9488 -49.1018 -52.097 " stroke="black" stroke-width="1" fill="transparent"/>
<polygon points="-66.78 -43.6551 -51.6367 -69.0628 -90.3488 -92.6626 " stroke="black" stroke-width="1" fill="transparent"/>
<polygon points="-99.552 -98.5983 -114.748 -53.9499 -79.9093 -50.0478 " stroke="black" stroke-width="1" fill="transparent"/>
<polygon points="-194.112 -62.6236 -157.043 -39.2516 -126.651 -89.4993 " stroke="black" stroke-width="1" fill="transparent"/>
<polygon points="125.032 -64.9877 80.8469 -113.7 82.5676 -71.9844 " stroke="black" stroke-width="1" fill="transparent"/>
<polygon points="60.1679 -16.2024 83.8239 -45.6448 78.4813 16.7902 " stroke="black" stroke-width="1" fill="transparent"/>
<polygon points="-25.6686 -287.723 31.9708 -300.942 -0.0655758 -330.244 " stroke="black" stroke-width="1" fill="transparent"/>
<polygon points="-145.944 -196.139 -143.622 -128.089 -114.69 -167.125 " stroke="black" stroke-width="1" fill="transparent"/>
<polygon points="-104.632 -204.35 -105.486 -274.172 -155.44 -265.86 " stroke="black" stroke-width="1" fill="transparent"/>
<polygon points="-154.256 -198.181 -184.053 -149.92 -133.467 -155.589 " stroke="black" stroke-width="1" fill="transparent"/>
<polygon points="-182.079 -453.576 -181.456 -369.658 -160.756 -418.059 " stroke="black" stroke-width="1" fill="transparent"/>
<polygon points="-230.957 -411.298 -209.065 -320.539 -204.71 -406.078 " stroke="black" stroke-width="1" fill="transparent"/>
<polygon points="-210.098 -507.006 -234.411 -425.314 -207.91 -419.621 " stroke="black" stroke-width="1" fill="transparent"/>
<polygon points="-631.208 165.298 -645.443 165.468 -617.326 140.285 " stroke="black" stroke-width="1" fill="transparent"/>
<polygon points="-137.394 -351.809 -153.881 -271.676 -124.466 -349.08 " stroke="black" stroke-width="1" fill="transparent"/>
<polygon points="-225.412 -532.481 -242.162 -571.845 -246.579 -554.541 " stroke="black" stroke-width="1" fill="transparent"/>
<polygon points="-338.108 -724.273 -304.213 -625.45 -291.2 -645.335 " stroke="black" stroke-width="1" fill="transparent"/>
<polygon points="-278.015 -688.14 -325.184 -780.707 -318.003 -752.95 " stroke="black" stroke-width="1" fill="transparent"/>
<polygon points="-389.229 -612.242 -421.698 -603.355 -412.51 -592.052 " stroke="black" stroke-width="1" fill="transparent"/>
<polygon points="-815.302 -324.839 -813.127 -356.919 -782.366 -334.15 " stroke="black" stroke-width="1" fill="transparent"/>
<polygon points="-478.628 -5.69152 -456.374 3.47472 -475.462 -26.3401 " stroke="black" stroke-width="1" fill="transparent"/>
</svg>