<svg width="1927.73" height="1431.03" viewBox="-1020.42 -764.241 1927.73 1431.03" xmlns="http://www.w3.org/2000/svg">
<polygon points="-45.6817 -286.915 -35.7668 -349.829 28.3499 -303.933 " stroke="black" stroke-width="1" fill="transparent"/>
<polygon points="-193.344 -243.345 -147.007 -188.505 -185.577 -221.779 " stroke="black" stroke-width="1" fill="transparent"/>
<polygon points="-106.095 -311.754 -73.5691 -266.676 -80.2047 -255.852 " stroke="black" stroke-width="1" fill="transparent"/>
<polygon points="-163.924 -167.997 -121.631 -120.471 -76.4982 -119.611 " stroke="black" stroke-width="1" fill="transparent"/>
<polygon points="-148.022 -101.733 -60.4282 -45.5067 -105.905 -94.6072 " stroke="black" stroke-width="1" fill="transparent"/>
<polygon points="-114.42 37.818 -66.413 57.1605 28.539 75.5552 " stroke="black" stroke-width="1" fill="transparent"/>
<polygon points="38.8851 77.4599 -52.1762 50.6719 -4.99759 79.6348 " stroke="black" stroke-width="1" fill="transparent"/>
<polygon points="46.4552 52.8871 103.825 125.607 101.291 56.4429 " stroke="black" stroke-width="1" fill="transparent"/>
<polygon points="85.0217 108.18 60.0162 130.304 90.9744 175.515 " stroke="black" stroke-width="1" fill="transparent"/>
<polygon points="80.0629 174.902 220.509 124.621 56.7062 117.647 " stroke="black" stroke-width="1" fill="transparent"/>
<polygon points="90.0874 183.163 172.487 177.865 229.404 127.176 " stroke="black" stroke-width="1" fill="transparent"/>
<polygon points="282.93 62.3628 235.296 51.8812 208.949 124.352 " stroke="black" stroke-width="1" fill="transparent"/>
<polygon points="56.3757 117.136 220.165 124.15 84.2592 46.3769 " stroke="black" stroke-width="1" fill="transparent"/>
<polygon points="-46.6289 203.5 -75.4288 218.34 59.0184 162.819 " stroke="black" stroke-width="1" fill="transparent"/>
<polygon points="73.1846 157.588 -58.2225 251.033 50.9944 173.548 " stroke="black" stroke-width="1" fill="transparent"/>
<polygon points="64.963 150.67 -87.3608 270.523 -67.412 254.653 " stroke="black" stroke-width="1" fill="transparent"/>
<polygon points="14.2324 152.813 -111.342 254.793 46.0903 126.328 " stroke="black" stroke-width="1" fill="transparent"/>
<polygon points="-111.327 -21.0685 6.89989 0.294565 -79.638 -46.1302 " stroke="black" stroke-width="1" fill="transparent"/>
<polygon points="-96.442 -160.54 -21.3229 -101.794 -42.7118 -135.606 " stroke="black" stroke-width="1" fill="transparent"/>
<polygon points="-8.99396 -456.116 10.8353 -421.651 14.5189 -379.947 " stroke="black" stroke-width="1" fill="transparent"/>
<polygon points="-10.6502 -452.22 -13.8965 -506.549 10.5315 -418.052 " stroke="black" stroke-width="1" fill="transparent"/>
<polygon points="896.076 -112.99 822.114 -145.677 907.309 -141.422 " stroke="black" stroke-width="1" fill="transparent"/>
<polygon points="253.929 134.955 245.168 183.634 222.398 145.48 " stroke="black" stroke-width="1" fill="transparent"/>
<polygon points="96.4585 248.713 129.914 276.379 64.4258 330.036 " stroke="black" stroke-width="1" fill="transparent"/>
<polygon points="131.971 47.1253 122.695 19.2623 61.6743 52.6599 " stroke="black" stroke-width="1" fill="transparent"/>
<polygon points="457.04 -702.167 496.071 -764.241 481.999 -722.122 " stroke="black" stroke-width="1" fill="transparent"/>
<polygon points="460.969 -595.131 550.357 -559.201 526.292 -545.834 " stroke="black" stroke-width="1" fill="transparent"/>
<polygon points="458.455 -380.815 476.742 -400.617 423.158 -412.395 " stroke="black" stroke-width="1" fill="transparent"/>
<polygon points="757.707 86.1606 845.923 67.3202 842.449 12.2178 " stroke="black" stroke-width="1" fill="transparent"/>
<polygon points="-192.215 -287.484 -190.52 -264.015 -218.805 -318.771 " stroke="black" stroke-width="1" fill="transparent"/>
<polygon points="-196.923 -92.7942 -120.431 -62.6538 -179.893 -99.7724 " stroke="black" stroke-width="1" fill="transparent"/>
<polygon points="-50.4721 32.5281 -146.105 26.8794 -78.288 53.5817 " stroke="black" stroke-width="1" fill="transparent"/>
<polygon points="51.8477 120.63 -0.989908 159.963 100.312 147.322 " stroke="black" stroke-width="1" fill="transparent"/>
<polygon points="159.926 133.768 53.7517 124.167 102.419 150.478 " stroke="black" stroke-width="1" fill="transparent"/>
<polygon points="161.387 59.8321 94.6889 92.7027 199.841 109.818 " stroke="black" stroke-width="1" fill="transparent"/>
<polygon points="161.626 59.876 200.346 109.656 178.247 37.1539 " stroke="black" stroke-width="1" fill="transparent"/>
<polygon points="164.971 0.600179 181.032 -2.69768 129.778 -51.2091 " stroke="black" stroke-width="1" fill="transparent"/>
<polygon points="95.6895 -63.5729 144.569 -12.48 108.544 -81.3907 " stroke="black" stroke-width="1" fill="transparent"/>
<polygon points="513.662 184.337 489.219 128.575 426.777 148.307 " stroke="black" stroke-width="1" fill="transparent"/>
<polygon points="721.995 -167.703 743.138 -127.97 795.474 -165.504 " stroke="black" stroke-width="1" fill="transparent"/>
<polygon points="691.553 -119.573 761.991 -102.932 744.995 -178.42 " stroke="black" stroke-width="1" fill="transparent"/>
<polygon points="69.1534 -172.533 47.9219 -209.391 49.7248 -171.799 " stroke="black" stroke-width="1" fill="transparent"/>
<polygon points="549.956 -639.161 568.221 -600.572 573.758 -621.996 " stroke="black" stroke-width="1" fill="transparent"/>
<polygon points="54.6004 -340.446 29.6189 -299.572 -31.2814 -343.44 " stroke="black" stroke-width="1" fill="transparent"/>
<polygon points="-215.39 -305.775 -170.23 -287.776 -135.857 -337.295 " stroke="black" stroke-width="1" fill="transparent"/>
<polygon points="-73.9098 -242.317 -1.30541 -236.741 -46.0348 -285.699 " stroke="black" stroke-width="1" fill="transparent"/>
<polygon points="-257.815 -161.533 -218.807 -81.194 -188.55 -131.864 " stroke="black" stroke-width="1" fill="transparent"/>
<polygon points="-149.219 -141.889 -182.299 -217.359 -210.041 -189.897 " stroke="black" stroke-width="1" fill="transparent"/>
<polygon points="-221.024 -203.802 -226.055 -127.315 -196.992 -157.084 " stroke="black" stroke-width="1" fill="transparent"/>
<polygon points="-219.32 -265.816 -192.461 -192.804 -192.05 -259.578 " stroke="black" stroke-width="1" fill="transparent"/>
<polygon points="-311.691 -203.138 -343.774 -106.61 -289.938 -120.594 " stroke="black" stroke-width="1" fill="transparent"/>
<polygon points="-441.368 408.849 -458.393 485.87 -467.129 462.251 " stroke="black" stroke-width="1" fill="transparent"/>
<polygon points="-380.181 463.528 -417.91 513.293 -401.636 437.3 " stroke="black" stroke-width="1" fill="transparent"/>
<polygon points="-440.871 408.85 -466.654 462.238 -454.746 406.034 " stroke="black" stroke-width="1" fill="transparent"/>
<polygon points="-179.485 -366.993 -221.921 -276.981 -194.424 -271.357 " stroke="black" stroke-width="1" fill="transparent"/>
<polygon points="-563.379 351.78 -535.854 277.139 -526.025 276.539 " stroke="black" stroke-width="1" fill="transparent"/>
<polygon points="-278.205 -338.001 -315.288 -387.073 -325.313 -365.191 " stroke="black" stroke-width="1" fill="transparent"/>
<polygon points="-524.449 -488.196 -447.961 -402.429 -431.161 -428.165 " stroke="black" stroke-width="1" fill="transparent"/>
<polygon points="-934.055 -108.434 -942.716 -137.601 -866.707 -125.716 " stroke="black" stroke-width="1" fill="transparent"/>
<polygon points="-946.728 28.9369 -960.844 73.0538 -1020.42 61.2426 " stroke="black" stroke-width="1" fill="transparent"/>
<polygon points="-234.097 -193.345 -245.158 -131.372 -171.972 -147.059 " stroke="black" stroke-width="1" fill="transparent"/>
<polygon points="-277.625 -77.9953 -266.719 -143.844 -321.144 -127.841 " stroke="black" stroke-width="1" fill="transparent"/>
<polygon points="-408.282 -43.282 -401.293 3.34488 -361.444 7.15625 " stroke="black" stroke-width="1" fill="transparent"/>
<polygon points="-368.762 400.547 -375.454 451.668 -404.188 453.581 " stroke="black" stroke-width="1" fill="transparent"/>
<polygon points="-189.371 -132.867 -183.854 -188.583 -258.233 -162.657 " stroke="black" stroke-width="1" fill="transparent"/>
<polygon points="-176.271 -42.9831 -235.841 31.4981 -165.513 12.7404 " stroke="black" stroke-width="1" fill="transparent"/>
<polygon points="-299.104 -64.7497 -283.232 -4.04945 -223.667 -78.6452 " stroke="black" stroke-width="1" fill="transparent"/>
<polygon points="-207.598 -138.586 -193.938 -100.829 -117.846 -142.568 " stroke="black" stroke-width="1" fill="transparent"/>
<polygon points="-430.816 -99.2632 -389.707 -105.904 -404.724 -141.252 " stroke="black" stroke-width="1" fill="transparent"/>
<polygon points="-203.625 -392.016 -137.26 -417.961 -110.201 -459.756 " stroke="black" stroke-width="1" fill="transparent"/>
<polygon points="-403.141 -120.574 -313.522 -167.705 -360.116 -171.951 " stroke="black" stroke-width="1" fill="transparent"/>
<polygon points="-437.419 -202.889 -419.602 -152.648 -375.572 -205.154 " stroke="black" stroke-width="1" fill="transparent"/>
<polygon points="-406.459 -263.247 -406.12 -181.43 -340.728 -189.015 " stroke="black" stroke-width="1" fill="transparent"/>
<polygon points="-176.416 127.905 -206.704 128.696 -178.182 175.003 " stroke="black" stroke-width="1" fill="transparent"/>
<polygon points="27.775 -290.115 45.6735 -262.113 -35.4773 -257.382 " stroke="black" stroke-width="1" fill="transparent"/>
<polygon points="-104.111 -375.202 -47.1294 -351.578 -72.2939 -333.816 " stroke="black" stroke-width="1" fill="transparent"/>
<polygon points="72.548 -372.989 92.094 -427.884 132.005 -401.467 " stroke="black" stroke-width="1" fill="transparent"/>
<polygon points="58.2783 -389.926 63.3251 -417.633 112.661 -431.712 " stroke="black" stroke-width="1" fill="transparent"/>
<polygon points="-30.296 -292.888 -42.9397 -261.757 -82.4794 -232.796 " stroke="black" stroke-width="1" fill="transparent"/>
<polygon points="17.6995 -318.343 5.95265 -354.04 -0.145541 -298.152 " stroke="black" stroke-width="1" fill="transparent"/>
<polygon points="23.225 -323.361 50.068 -407.54 12.7549 -358.215 " stroke="black" stroke-width="1" fill="transparent"/>
<polygon points="84.609 -219.617 19.1543 -254.695 94.2905 -260.953 " stroke="black" stroke-width="1" fill="transparent"/>
<polygon points="160.927 -134.338 210.097 -105.752 194.265 -76.7458 " stroke="black" stroke-width="1" fill="transparent"/>
<polygon points="253.63 -190.316 251.072 -210.176 235.011 -159.57 " stroke="black" stroke-width="1" fill="transparent"/>
<polygon points="259.394 -0.33572 253.771 56.1839 225.022 53.2386 " stroke="black" stroke-width="1" fill="transparent"/>
<polygon points="256.281 -8.70679 295.005 -47.7031 258.136 -47.1437 " stroke="black" stroke-width="1" fill="transparent"/>
<polygon points="263.592 -66.9509 243.125 -32.7877 263.853 -28.5337 " stroke="black" stroke-width="1" fill="transparent"/>
<polygon points="244.613 -6.18024 258.295 -37.9734 265.747 -102.827 " stroke="black" stroke-width="1" fill="transparent"/>
<polygon points="252.757 -31.9001 265.536 -129.997 252.515 -112.146 " stroke="black" stroke-width="1" fill="transparent"/>
<polygon points="26.0315 -200.329 55.6196 -169.938 87.9829 -197.364 " stroke="black" stroke-width="1" fill="transparent"/>
<polygon points="-10.4409 -190.039 -72.5229 -107.047 17.1064 -158.337 " stroke="black" stroke-width="1" fill="transparent"/>
<polygon points="164.992 2.78933 169.05 -76.2987 215.634 -17.621 " stroke="black" stroke-width="1" fill="transparent"/>
<polygon points="171.07 -15.378 220.808 -37.2379 194.352 20.2001 " stroke="black" stroke-width="1" fill="transparent"/>
<polygon points="219.217 -1.56424 248.277 -58.8256 248.845 -38.6518 " stroke="black" stroke-width="1" fill="transparent"/>
<polygon points="235.932 -12.2315 233.486 -25.9583 260.301 -65.1451 " stroke="black" stroke-width="1" fill="transparent"/>
<polygon points="209.37 -23.4973 259.408 -72.6238 243.418 -132.138 " stroke="black" stroke-width="1" fill="transparent"/>
<polygon points="140.808 -70.8804 189.469 -46.9504 199.355 -157.859 " stroke="black" stroke-width="1" fill="transparent"/>
<polygon points="30.1596 -30.3542 73.0498 -8.10552 115.649 -95.1757 " stroke="black" stroke-width="1" fill="transparent"/>
<polygon points="68.8288 -28.0974 27.2349 -51.4052 11.617 9.84728 " stroke="black" stroke-width="1" fill="transparent"/>
<polygon points="51.0148 31.887 37.7131 4.55049 66.598 45.1925 " stroke="black" stroke-width="1" fill="transparent"/>
<polygon points="127.316 71.8986 138.084 160.551 114.801 49.8039 " stroke="black" stroke-width="1" fill="transparent"/>
<polygon points="115.846 68.8149 139.395 130.272 127.019 156.505 " stroke="black" stroke-width="1" fill="transparent"/>
<polygon points="89.2564 125.875 114.922 145.887 76.881 152.361 " stroke="black" stroke-width="1" fill="transparent"/>
<polygon points="107.749 140.847 81.8955 121.972 114.949 104.604 " stroke="black" stroke-width="1" fill="transparent"/>
<polygon points="129.357 -68.9284 163.925 -20.3845 100.401 -18.2908 " stroke="black" stroke-width="1" fill="transparent"/>
<polygon points="173.643 -56.243 192.494 15.6216 110.218 -49.7175 " stroke="black" stroke-width="1" fill="transparent"/>
<polygon points="233.476 -37.8164 239.976 -26.1499 222.732 6.62249 " stroke="black" stroke-width="1" fill="transparent"/>
<polygon points="234.961 36.8108 210.947 18.221 226.971 -13.3073 " stroke="black" stroke-width="1" fill="transparent"/>
<polygon points="208.563 86.2457 214.055 20.9609 240.802 42.6622 " stroke="black" stroke-width="1" fill="transparent"/>
<polygon points="170.181 141.615 198.463 89.87 231.371 47.8164 " stroke="black" stroke-width="1" fill="transparent"/>
<polygon points="35.095 362.421 45.1227 302.53 51.5956 322.683 " stroke="black" stroke-width="1" fill="transparent"/>
<polygon points="56.291 289.672 51.2896 351.81 52.571 318.953 " stroke="black" stroke-width="1" fill="transparent"/>
<polygon points="-111.414 215.517 -118.943 255.506 -200.364 267.619 " stroke="black" stroke-width="1" fill="transparent"/>
<polygon points="-43.2833 258.454 -89.8661 322.625 -68.8775 319.108 " stroke="black" stroke-width="1" fill="transparent"/>
<polygon points="285.303 20.0943 240.899 105.677 230.341 127.693 " stroke="black" stroke-width="1" fill="transparent"/>
<polygon points="130.588 60.156 144.844 32.7596 88.7022 161.179 " stroke="black" stroke-width="1" fill="transparent"/>
<polygon points="251.209 79.2474 228.619 156.759 240.462 221.184 " stroke="black" stroke-width="1" fill="transparent"/>
<polygon points="449.057 202.491 493.319 166.05 456.647 129.11 " stroke="black" stroke-width="1" fill="transparent"/>
<polygon points="37.299 404.14 133.523 349.811 54.2099 429.323 " stroke="black" stroke-width="1" fill="transparent"/>
<polygon points="246.443 666.785 275.173 636.844 300.006 661.86 " stroke="black" stroke-width="1" fill="transparent"/>
<polygon points="841.821 450.173 822.1 489.182 792.732 505.901 " stroke="black" stroke-width="1" fill="transparent"/>
<polygon points="166.846 -84.8367 117.073 -28.8982 201.236 -36.1135 " stroke="black" stroke-width="1" fill="transparent"/>
<polygon points="65.9036 -0.983518 134.468 -77.6769 -12.2712 3.95222 " stroke="black" stroke-width="1" fill="transparent"/>
<polygon points="68.1017 -53.309 -13.6836 26.2477 127.187 -68.1402 " stroke="black" stroke-width="1" fill="transparent"/>
<polygon points="122.741 -93.5153 87.0502 -8.62792 88.6767 -26.6842 " stroke="black" stroke-width="1" fill="transparent"/>
<polygon points="93.4004 155.661 28.5806 183.257 9.50443 241.04 " stroke="black" stroke-width="1" fill="transparent"/>
<polygon points="108.717 181.571 29.2917 268.761 55.6761 273.966 " stroke="black" stroke-width="1" fill="transparent"/>
<polygon points="83.3853 295.26 108.361 371.913 110.134 297.979 " stroke="black" stroke-width="1" fill="transparent"/>
<polygon points="404.267 169.302 332.508 135.568 466.711 179.178 " stroke="black" stroke-width="1" fill="transparent"/>
<polygon points="74.5883 -95.377 59.1213 -140.395 170.818 -71.9848 " stroke="black" stroke-width="1" fill="transparent"/>
<polygon points="169.943 -156.945 142.628 -144.209 70.3843 -159.913 " stroke="black" stroke-width="1" fill="transparent"/>
<polygon points="80.8274 -33.3041 101.477 -31.3745 123.344 28.9542 " stroke="black" stroke-width="1" fill="transparent"/>
<polygon points="56.4522 34.5333 38.1064 -30.3417 74.585 79.0054 " stroke="black" stroke-width="1" fill="transparent"/>
<polygon points="53.7805 139.133 42.9225 134.531 40.071 91.1602 " stroke="black" stroke-width="1" fill="transparent"/>
<polygon points="-57.3036 -213.313 0.0515178 -189.559 21.9251 -205.963 " stroke="black" stroke-width="1" fill="transparent"/>
<polygon points="-50.5406 -89.3374 -86.7897 -58.8816 -60.3099 -20.1671 " stroke="black" stroke-width="1" fill="transparent"/>
<polygon points="58.2501 -188.631 132.483 -180.489 40.2918 -158.268 " stroke="black" stroke-width="1" fill="transparent"/>
<polygon points="-61.9288 -369.732 -45.9887 -381.584 14.9359 -292.376 " stroke="black" stroke-width="1" fill="transparent"/>
<polygon points="67.1337 -208.931 32.2563 -339.469 92.6966 -248.297 " stroke="black" stroke-width="1" fill="transparent"/>
<polygon points="-41.2793 -258.003 -60.7929 -294.708 -105.558 -385.379 " stroke="black" stroke-width="1" fill="transparent"/>
<polygon points="-24.3543 -307.581 -18.6484 -251.276 -13.4079 -221.62 " stroke="black" stroke-width="1" fill="transparent"/>
<polygon points="-23.2981 -197.603 -32.1597 -222.823 -44.2768 -121.568 " stroke="black" stroke-width="1" fill="transparent"/>
<polygon points="-52.8524 -199.28 -62.962 -124.784 -15.008 -125.187 " stroke="black" stroke-width="1" fill="transparent"/>
<polygon points="-59.8389 -129.804 -31.8157 -86.3704 -15.9699 -128.131 " stroke="black" stroke-width="1" fill="transparent"/>
<polygon points="-19.7137 -127.976 -20.7756 -104.084 22.6262 -82.408 " stroke="black" stroke-width="1" fill="transparent"/>
<polygon points="44.0317 -108.761 25.7263 -190.645 48.574 -227.961 " stroke="black" stroke-width="1" fill="transparent"/>
<polygon points="22.9282 -39.3906 37.6771 -166.256 52.848 -83.3656 " stroke="black" stroke-width="1" fill="transparent"/>
<polygon points="5.58427 -59.5744 -12.6332 -103.527 12.5573 -191.18 " stroke="black" stroke-width="1" fill="transparent"/>
<polygon points="18.9603 -148.894 5.27312 -128.991 -8.16444 -173.954 " stroke="black" stroke-width="1" fill="transparent"/>
<polygon points="49.7535 -104.853 14.2492 -133.762 30.9581 -156.024 " stroke="black" stroke-width="1" fill="transparent"/>
<polygon points="63.761 -155.842 54.106 -136.286 22.4684 -170.103 " stroke="black" stroke-width="1" fill="transparent"/>
<polygon points="-4.91546 -380.748 19.3194 -328.995 47.7348 -372.284 " stroke="black" stroke-width="1" fill="transparent"/>
<polygon points="109.155 -170.13 123.03 -130.277 112.458 -202.978 " stroke="black" stroke-width="1" fill="transparent"/>
<polygon points="86.9851 -266.829 30.917 -260.573 84.1435 -231.138 " stroke="black" stroke-width="1" fill="transparent"/>
<polygon points="13.0745 -194.164 -57.8568 -209.559 -73.0219 -168.72 " stroke="black" stroke-width="1" fill="transparent"/>
<polygon points="-164.002 -169.766 -91.2275 -154.764 -73.9532 -197.96 " stroke="black" stroke-width="1" fill="transparent"/>
<polygon points="-105.541 -66.2628 -57.6402 -87.8444 -124.202 -120.894 " stroke="black" stroke-width="1" fill="transparent"/>
<polygon points="-218.706 -65.5308 -155.207 -50.2872 -149.423 -113.116 " stroke="black" stroke-width="1" fill="transparent"/>
<polygon points="-379.498 132.893 -290.149 72.4962 -435.077 162.33 " stroke="black" stroke-width="1" fill="transparent"/>
<polygon points="-190.126 -98.8207 -98.3176 -130.319 -135.625 -153.491 " stroke="black" stroke-width="1" fill="transparent"/>
<polygon points="-342.04 226.511 -362.855 252.095 -307.221 235.513 " stroke="black" stroke-width="1" fill="transparent"/>
<polygon points="-459.784 265.267 -359.209 262.173 -338.146 236.52 " stroke="black" stroke-width="1" fill="transparent"/>
<polygon points="-454.109 275.797 -333.229 247.854 -399.444 219.227 " stroke="black" stroke-width="1" fill="transparent"/>
<polygon points="-454.975 274.262 -400.3 217.692 -457.862 243.377 " stroke="black" stroke-width="1" fill="transparent"/>
<polygon points="-545.164 205.681 -487.367 182.599 -483.909 152.461 " stroke="black" stroke-width="1" fill="transparent"/>
<polygon points="-450.135 282.429 -453.054 251.564 -479.861 256.486 " stroke="black" stroke-width="1" fill="transparent"/>
<polygon points="-500.133 225.796 -520.558 208.389 -527.423 232.028 " stroke="black" stroke-width="1" fill="transparent"/>
<polygon points="-366.79 -157.657 -349.99 -67.208 -330.448 -117.628 " stroke="black" stroke-width="1" fill="transparent"/>
<polygon points="-280.707 264.672 -295.117 291.425 -253.065 277.414 " stroke="black" stroke-width="1" fill="transparent"/>
<polygon points="-281.02 158.428 -249.544 236.065 -233.697 214.159 " stroke="black" stroke-width="1" fill="transparent"/>
<polygon points="-282.439 184.263 -350.795 209.198 -316.249 218.391 " stroke="black" stroke-width="1" fill="transparent"/>
<polygon points="-260.771 238.276 -277.56 210.263 -327.967 261.635 " stroke="black" stroke-width="1" fill="transparent"/>
<polygon points="124.643 -91.8572 73.3748 -146.1 81.7688 -108.18 " stroke="black" stroke-width="1" fill="transparent"/>
<polygon points="66.5259 -50.7285 86.0543 -96.6395 86.7093 -20.9047 " stroke="black" stroke-width="1" fill="transparent"/>
</svg>