<svg width="851.774" height="676.822" viewBox="-305.425 -104.202 851.774 676.822" xmlns="http://www.w3.org/2000/svg">
<polygon points="130.22 200.44 186.15 200.44 186.15 257.81 " stroke="black" stroke-width="1" fill="transparent"/>
<polygon points="130.22 233.533 135.76 176.428 186.15 233.533 " stroke="black" stroke-width="1" fill="transparent"/>
<polygon points="45.9439 267.34 117.68 244.886 92.0929 296.234 " stroke="black" stroke-width="1" fill="transparent"/>
<polygon points="45.955 267.329 80.6663 221.696 117.689 244.862 " stroke="black" stroke-width="1" fill="transparent"/>
<polygon points="-3.64298 258.437 62.2342 273.688 12.427 301.91 " stroke="black" stroke-width="1" fill="transparent"/>
<polygon points="49.364 238.853 62.2316 273.711 -3.63605 258.448 " stroke="black" stroke-width="1" fill="transparent"/>
<polygon points="62.9191 247.87 116.519 268.181 61.2638 281.862 " stroke="black" stroke-width="1" fill="transparent"/>
<polygon points="116.515 268.175 62.9109 247.869 117.421 249.443 " stroke="black" stroke-width="1" fill="transparent"/>
<polygon points="129.137 272.772 79.3386 259.225 129.331 272.599 " stroke="black" stroke-width="1" fill="transparent"/>
<polygon points="104.892 219.182 105.122 219.009 95.7493 236.799 " stroke="black" stroke-width="1" fill="transparent"/>
<polygon points="22.1341 264.59 55.6134 291.913 1.33516 291.944 " stroke="black" stroke-width="1" fill="transparent"/>
<polygon points="22.1251 264.576 72.2839 269.958 55.6109 291.9 " stroke="black" stroke-width="1" fill="transparent"/>
<polygon points="96.1312 347.9 93.9232 348.506 54.8844 336.216 " stroke="black" stroke-width="1" fill="transparent"/>
<polygon points="127.001 357.898 93.9214 348.521 96.1323 347.922 " stroke="black" stroke-width="1" fill="transparent"/>
<polygon points="89.225 381.546 85.984 380.272 59.1322 356.274 " stroke="black" stroke-width="1" fill="transparent"/>
<polygon points="118.285 446.593 153.127 490.098 136.217 445.262 " stroke="black" stroke-width="1" fill="transparent"/>
<polygon points="76.3527 295.731 98.1802 322.133 48.8282 303.725 " stroke="black" stroke-width="1" fill="transparent"/>
<polygon points="76.3454 295.729 113.341 317.725 98.1763 322.133 " stroke="black" stroke-width="1" fill="transparent"/>
<polygon points="130.001 330.398 105.773 307.75 130.28 330.48 " stroke="black" stroke-width="1" fill="transparent"/>
<polygon points="84.3987 223.414 146.653 204.882 115.634 252.677 " stroke="black" stroke-width="1" fill="transparent"/>
<polygon points="129.442 188.757 146.654 204.884 84.3991 223.415 " stroke="black" stroke-width="1" fill="transparent"/>
<polygon points="122.514 190.163 122.469 189.862 136.113 209.438 " stroke="black" stroke-width="1" fill="transparent"/>
<polygon points="136.113 209.438 122.469 189.862 118.967 165.893 " stroke="black" stroke-width="1" fill="transparent"/>
<polygon points="118.967 165.893 126.086 142.515 136.113 209.438 " stroke="black" stroke-width="1" fill="transparent"/>
<polygon points="137.713 213.141 86.1807 236.602 137.656 212.854 " stroke="black" stroke-width="1" fill="transparent"/>
<polygon points="146.871 205.086 115.634 252.677 146.653 204.882 " stroke="black" stroke-width="1" fill="transparent"/>
<polygon points="137.027 208.772 143.921 123.024 137.199 209.016 " stroke="black" stroke-width="1" fill="transparent"/>
<polygon points="143.921 123.024 137.027 208.772 143.636 123.149 " stroke="black" stroke-width="1" fill="transparent"/>
<polygon points="127.206 141.614 143.636 123.149 137.027 208.772 " stroke="black" stroke-width="1" fill="transparent"/>
<polygon points="127.206 141.614 137.027 208.772 126.998 141.848 " stroke="black" stroke-width="1" fill="transparent"/>
<polygon points="135.152 133.279 106.133 87.259 135.437 133.154 " stroke="black" stroke-width="1" fill="transparent"/>
<polygon points="121.366 140.885 104.015 158.49 89.9153 95.7141 " stroke="black" stroke-width="1" fill="transparent"/>
<polygon points="180.61 176.428 186.15 233.533 135.76 176.428 " stroke="black" stroke-width="1" fill="transparent"/>
<polygon points="180.61 178.075 135.76 178.075 170.7 121.98 " stroke="black" stroke-width="1" fill="transparent"/>
<polygon points="145.67 121.98 170.7 121.98 135.76 178.075 " stroke="black" stroke-width="1" fill="transparent"/>
<polygon points="170.7 121.98 145.67 121.98 107.703 42.5034 " stroke="black" stroke-width="1" fill="transparent"/>
<polygon points="107.703 42.5034 123.114 23.1794 170.7 121.98 " stroke="black" stroke-width="1" fill="transparent"/>
<polygon points="152.142 46.3296 136.73 65.6535 114.462 3.60499 " stroke="black" stroke-width="1" fill="transparent"/>
<polygon points="114.463 3.6049 136.731 65.6533 86.5017 38.674 " stroke="black" stroke-width="1" fill="transparent"/>
<polygon points="219.25 22.5564 185.811 51.8123 185.461 -23.5512 " stroke="black" stroke-width="1" fill="transparent"/>
<polygon points="329.945 145.086 313.251 92.8105 360.989 92.8052 " stroke="black" stroke-width="1" fill="transparent"/>
<polygon points="500.129 143.551 507.255 194.275 462.638 184.155 " stroke="black" stroke-width="1" fill="transparent"/>
<polygon points="123.397 23.0434 170.7 121.98 123.114 23.1794 " stroke="black" stroke-width="1" fill="transparent"/>
<polygon points="145.67 12.3189 170.7 121.98 123.397 23.0434 " stroke="black" stroke-width="1" fill="transparent"/>
<polygon points="171.99 66.9814 149.717 77.7059 156.583 12.1411 " stroke="black" stroke-width="1" fill="transparent"/>
<polygon points="148.9 76.7357 115.629 30.495 149.183 76.5996 " stroke="black" stroke-width="1" fill="transparent"/>
<polygon points="156.049 11.0348 149.183 76.5997 115.629 30.495 " stroke="black" stroke-width="1" fill="transparent"/>
<polygon points="240.676 85.0325 198.523 100.05 226.635 29.4296 " stroke="black" stroke-width="1" fill="transparent"/>
<polygon points="171.651 144.408 152.071 90.9179 173.405 78.5416 " stroke="black" stroke-width="1" fill="transparent"/>
<polygon points="135.525 79.7608 106.297 -25.6977 154.054 63.501 " stroke="black" stroke-width="1" fill="transparent"/>
<polygon points="105.989 -25.7532 106.297 -25.6977 135.525 79.7608 " stroke="black" stroke-width="1" fill="transparent"/>
<polygon points="101.376 51.2488 101.427 -5.62885 101.684 51.3043 " stroke="black" stroke-width="1" fill="transparent"/>
<polygon points="57.35 67.2792 3.31294 29.7034 44.4402 11.9337 " stroke="black" stroke-width="1" fill="transparent"/>
<polygon points="73.9383 100.666 32.8111 118.436 56.6252 46.1266 " stroke="black" stroke-width="1" fill="transparent"/>
<polygon points="5.33766 68.2862 56.6252 46.1266 32.8111 118.436 " stroke="black" stroke-width="1" fill="transparent"/>
<polygon points="107.829 184.757 56.5414 206.917 34.0439 154.329 " stroke="black" stroke-width="1" fill="transparent"/>
<polygon points="145.544 2.31187 101.684 51.3043 101.427 -5.62884 " stroke="black" stroke-width="1" fill="transparent"/>
<polygon points="101.688 51.3105 145.548 2.31937 125.994 55.6886 " stroke="black" stroke-width="1" fill="transparent"/>
<polygon points="124.257 79.5767 149.493 28.5377 124.509 79.7627 " stroke="black" stroke-width="1" fill="transparent"/>
<polygon points="114.867 86.3238 115.146 86.4649 90.2315 85.8717 " stroke="black" stroke-width="1" fill="transparent"/>
<polygon points="72.3469 94.5884 27.618 91.5593 81.8543 38.1819 " stroke="black" stroke-width="1" fill="transparent"/>
<polygon points="81.8842 38.1753 27.6442 91.5488 26.1073 34.3923 " stroke="black" stroke-width="1" fill="transparent"/>
<polygon points="-42.0936 176.122 -97.1229 180.593 -100.444 123.871 " stroke="black" stroke-width="1" fill="transparent"/>
<polygon points="-251.821 223.155 -305.425 202.875 -271.823 174.018 " stroke="black" stroke-width="1" fill="transparent"/>
<polygon points="81.9098 -19.0742 105.989 -25.7532 135.525 79.7608 " stroke="black" stroke-width="1" fill="transparent"/>
<polygon points="137.588 39.0367 113.51 45.7158 88.8672 -5.61295 " stroke="black" stroke-width="1" fill="transparent"/>
<polygon points="269.367 143.806 248.863 217.359 223.968 165.672 " stroke="black" stroke-width="1" fill="transparent"/>
<polygon points="269.367 143.806 294.262 195.493 248.863 217.359 " stroke="black" stroke-width="1" fill="transparent"/>
<polygon points="261.05 95.6167 319.855 112.602 304.148 133.418 " stroke="black" stroke-width="1" fill="transparent"/>
<polygon points="319.855 112.602 261.049 95.6167 276.757 74.8013 " stroke="black" stroke-width="1" fill="transparent"/>
<polygon points="218.436 86.2965 255.72 122.819 269.415 111.437 " stroke="black" stroke-width="1" fill="transparent"/>
<polygon points="218.436 86.2965 204.741 97.6783 255.72 122.819 " stroke="black" stroke-width="1" fill="transparent"/>
<polygon points="122.177 246.264 197.627 221.174 145.506 200.152 " stroke="black" stroke-width="1" fill="transparent"/>
<polygon points="197.627 221.174 122.177 246.264 174.298 267.286 " stroke="black" stroke-width="1" fill="transparent"/>
<polygon points="105.238 371.534 87.6742 417.706 157.234 394.927 " stroke="black" stroke-width="1" fill="transparent"/>
<polygon points="133.495 358.185 85.5742 368.513 131.924 397.065 " stroke="black" stroke-width="1" fill="transparent"/>
<polygon points="157.234 394.927 87.6742 417.706 139.671 441.099 " stroke="black" stroke-width="1" fill="transparent"/>
<polygon points="93.311 462.872 130.4 496.433 144.867 486.156 " stroke="black" stroke-width="1" fill="transparent"/>
<polygon points="130.68 243.125 71.1984 277.529 114.598 296.693 " stroke="black" stroke-width="1" fill="transparent"/>
<polygon points="67.0632 364.262 28.1036 329.304 16.728 357.201 " stroke="black" stroke-width="1" fill="transparent"/>
<polygon points="67.9742 324.604 36.8095 294.564 65.5661 342.995 " stroke="black" stroke-width="1" fill="transparent"/>
<polygon points="324.047 276.609 295.129 227.13 308.986 228.177 " stroke="black" stroke-width="1" fill="transparent"/>
<polygon points="324.041 276.602 308.983 228.163 335.158 277.435 " stroke="black" stroke-width="1" fill="transparent"/>
<polygon points="308.742 257.636 351.583 259.791 312.666 222.479 " stroke="black" stroke-width="1" fill="transparent"/>
<polygon points="308.746 257.664 348.439 288.01 351.587 259.813 " stroke="black" stroke-width="1" fill="transparent"/>
<polygon points="314.5 357.68 366.329 315.761 321.692 302.316 " stroke="black" stroke-width="1" fill="transparent"/>
<polygon points="360.558 360.128 366.324 315.73 314.494 357.646 " stroke="black" stroke-width="1" fill="transparent"/>
<polygon points="323.292 517.121 307.547 557.267 340.817 518.464 " stroke="black" stroke-width="1" fill="transparent"/>
<polygon points="329.725 420.276 383.968 366.838 341.473 380.548 " stroke="black" stroke-width="1" fill="transparent"/>
<polygon points="362.479 476.156 352.848 441.041 347.915 480.739 " stroke="black" stroke-width="1" fill="transparent"/>
<polygon points="359.738 498.148 362.47 476.163 347.905 480.742 " stroke="black" stroke-width="1" fill="transparent"/>
<polygon points="298.597 572.548 298.554 572.62 303.042 548.119 " stroke="black" stroke-width="1" fill="transparent"/>
<polygon points="392.443 434.861 407.974 437.186 407.989 437.101 " stroke="black" stroke-width="1" fill="transparent"/>
<polygon points="336.187 453.729 332.853 399.265 346.498 418.845 " stroke="black" stroke-width="1" fill="transparent"/>
<polygon points="343.744 464.572 336.188 453.728 346.499 418.844 " stroke="black" stroke-width="1" fill="transparent"/>
<polygon points="295.022 493.556 295.027 493.643 284.173 472.739 " stroke="black" stroke-width="1" fill="transparent"/>
<polygon points="394.741 404.447 394.736 404.372 387.064 367.379 " stroke="black" stroke-width="1" fill="transparent"/>
<polygon points="266.302 334.33 248.863 279.685 294.262 270.207 " stroke="black" stroke-width="1" fill="transparent"/>
<polygon points="294.256 270.21 302.701 326.732 266.293 334.334 " stroke="black" stroke-width="1" fill="transparent"/>
<polygon points="255.127 442.85 251.669 385.683 289.375 391.466 " stroke="black" stroke-width="1" fill="transparent"/>
<polygon points="276.024 446.039 255.146 442.833 289.391 391.45 " stroke="black" stroke-width="1" fill="transparent"/>
<polygon points="354.105 390.907 354.06 390.863 357.124 337.696 " stroke="black" stroke-width="1" fill="transparent"/>
<polygon points="245.49 182.831 242.275 111.403 281.203 153.243 " stroke="black" stroke-width="1" fill="transparent"/>
<polygon points="242.279 111.414 245.491 182.843 213.638 135.14 " stroke="black" stroke-width="1" fill="transparent"/>
<polygon points="205.069 136.272 179.746 77.3276 226.425 107.764 " stroke="black" stroke-width="1" fill="transparent"/>
<polygon points="179.896 77.1283 226.425 107.764 179.746 77.3276 " stroke="black" stroke-width="1" fill="transparent"/>
<polygon points="173.792 56.8569 98.8544 -10.8977 173.892 56.6227 " stroke="black" stroke-width="1" fill="transparent"/>
<polygon points="190.524 34.9939 240.87 88.8702 190.722 64.9647 " stroke="black" stroke-width="1" fill="transparent"/>
<polygon points="240.849 88.8597 190.497 34.9893 240.593 51.494 " stroke="black" stroke-width="1" fill="transparent"/>
<polygon points="141.999 29.645 96.0569 30.5519 66.8153 17.8732 " stroke="black" stroke-width="1" fill="transparent"/>
<polygon points="56.1537 62.553 -1.73628 81.2756 18.9418 64.2455 " stroke="black" stroke-width="1" fill="transparent"/>
<polygon points="-1.99642 81.2874 18.9418 64.2455 -1.73628 81.2756 " stroke="black" stroke-width="1" fill="transparent"/>
<polygon points="-43.7759 74.9906 -49.9341 89.7026 -72.4723 99.8274 " stroke="black" stroke-width="1" fill="transparent"/>
<polygon points="-64.7021 185.137 -46.5048 169.968 -79.712 211.866 " stroke="black" stroke-width="1" fill="transparent"/>
<polygon points="-79.712 211.866 -76.6472 200.146 -64.7021 185.137 " stroke="black" stroke-width="1" fill="transparent"/>
<polygon points="-24.8661 142.744 -72.3073 175.39 -25.158 142.832 " stroke="black" stroke-width="1" fill="transparent"/>
<polygon points="142.032 29.6405 66.8485 17.8622 105.571 13.8218 " stroke="black" stroke-width="1" fill="transparent"/>
<polygon points="-30.4317 82.9023 -68.7086 100.844 -6.97909 75.7387 " stroke="black" stroke-width="1" fill="transparent"/>
<polygon points="-44.2639 139.418 -70.2079 173.366 -75.3072 171.127 " stroke="black" stroke-width="1" fill="transparent"/>
<polygon points="-75.3072 171.127 -70.2079 173.366 -70.4249 173.587 " stroke="black" stroke-width="1" fill="transparent"/>
<polygon points="-36.1115 243.611 -35.9528 243.348 -44.1249 261.781 " stroke="black" stroke-width="1" fill="transparent"/>
<polygon points="-112.11 208.597 -98.1695 198.561 -108.574 218.201 " stroke="black" stroke-width="1" fill="transparent"/>
<polygon points="162.765 70.0125 101.324 46.124 147.766 42.9931 " stroke="black" stroke-width="1" fill="transparent"/>
<polygon points="162.766 70.0119 109.589 61.0114 101.324 46.1235 " stroke="black" stroke-width="1" fill="transparent"/>
<polygon points="74.6223 72.7184 -24.0193 55.3932 59.1294 59.3587 " stroke="black" stroke-width="1" fill="transparent"/>
<polygon points="101.219 45.9351 147.766 42.9931 101.324 46.124 " stroke="black" stroke-width="1" fill="transparent"/>
<polygon points="90.7706 15.5968 52.6483 28.2289 32.1814 19.0817 " stroke="black" stroke-width="1" fill="transparent"/>
<polygon points="62.7716 56.4408 -20.3768 52.475 62.5751 56.2713 " stroke="black" stroke-width="1" fill="transparent"/>
<polygon points="40.6072 46.5278 62.5751 56.2713 -20.3768 52.475 " stroke="black" stroke-width="1" fill="transparent"/>
<polygon points="130.22 200.44 186.15 257.81 130.22 257.81 " stroke="black" stroke-width="1" fill="transparent"/>
<polygon points="186.15 309.846 135.76 366.95 130.22 309.846 " stroke="black" stroke-width="1" fill="transparent"/>
<polygon points="180.61 366.95 135.76 366.95 186.15 309.846 " stroke="black" stroke-width="1" fill="transparent"/>
<polygon points="170.65 426.37 135.76 369.985 180.61 369.985 " stroke="black" stroke-width="1" fill="transparent"/>
<polygon points="170.65 426.37 145.72 426.37 135.76 369.985 " stroke="black" stroke-width="1" fill="transparent"/>
<polygon points="145.72 240.703 170.65 240.703 208.594 319.685 " stroke="black" stroke-width="1" fill="transparent"/>
<polygon points="279.211 405.818 279.134 405.801 278.608 348.673 " stroke="black" stroke-width="1" fill="transparent"/>
<polygon points="179.445 282.307 211.082 363.918 179.369 282.263 " stroke="black" stroke-width="1" fill="transparent"/>
<polygon points="211.082 363.918 179.445 282.307 200.887 294.767 " stroke="black" stroke-width="1" fill="transparent"/>
<polygon points="211.082 363.918 200.887 294.767 200.936 294.84 " stroke="black" stroke-width="1" fill="transparent"/>
<polygon points="214.876 315.477 211.082 363.918 200.936 294.84 " stroke="black" stroke-width="1" fill="transparent"/>
<polygon points="218.498 340.126 211.082 363.918 214.876 315.477 " stroke="black" stroke-width="1" fill="transparent"/>
<polygon points="-34.9563 446.097 17.7585 396.142 2.36768 451.394 " stroke="black" stroke-width="1" fill="transparent"/>
<polygon points="9.29432 504.874 -6.47742 451.287 31.6015 443.228 " stroke="black" stroke-width="1" fill="transparent"/>
<polygon points="9.29432 504.874 9.21981 504.889 -6.47741 451.287 " stroke="black" stroke-width="1" fill="transparent"/>
<polygon points="108.94 323.176 109.016 323.133 98.0854 392.046 " stroke="black" stroke-width="1" fill="transparent"/>
<polygon points="98.1106 392.13 98.0854 392.046 109.016 323.133 " stroke="black" stroke-width="1" fill="transparent"/>
<polygon points="-277.191 334.326 -280.477 360.153 -277.205 334.243 " stroke="black" stroke-width="1" fill="transparent"/>
<polygon points="-241.368 229.512 -232.681 191.487 -220.71 205.796 " stroke="black" stroke-width="1" fill="transparent"/>
<polygon points="-219.767 255.42 -241.376 229.578 -220.719 205.868 " stroke="black" stroke-width="1" fill="transparent"/>
<polygon points="114.78 410.492 98.1106 392.13 109.016 323.133 " stroke="black" stroke-width="1" fill="transparent"/>
<polygon points="114.78 410.492 109.016 323.133 114.839 410.557 " stroke="black" stroke-width="1" fill="transparent"/>
<polygon points="137.766 419.843 114.839 410.557 109.016 323.133 " stroke="black" stroke-width="1" fill="transparent"/>
<polygon points="-73.4755 75.0806 -107.612 121.652 -92.9034 69.363 " stroke="black" stroke-width="1" fill="transparent"/>
<polygon points="-72.5226 131.959 -107.602 121.637 -73.4639 75.0655 " stroke="black" stroke-width="1" fill="transparent"/>
<polygon points="137.766 419.843 109.016 323.133 137.847 419.876 " stroke="black" stroke-width="1" fill="transparent"/>
<polygon points="-73.5281 130.979 -74.471 74.0858 -74.4023 74.106 " stroke="black" stroke-width="1" fill="transparent"/>
<polygon points="-223.476 237.846 -219.685 188.707 -219.648 188.762 " stroke="black" stroke-width="1" fill="transparent"/>
<polygon points="108.94 323.176 98.0854 392.046 94.8864 343.567 " stroke="black" stroke-width="1" fill="transparent"/>
<polygon points="90.9841 368.156 94.8864 343.567 98.0854 392.046 " stroke="black" stroke-width="1" fill="transparent"/>
<polygon points="-108.243 416.662 -102.632 468.834 -115.266 482.253 " stroke="black" stroke-width="1" fill="transparent"/>
<polygon points="30.3719 500.407 9.2825 504.871 31.591 443.226 " stroke="black" stroke-width="1" fill="transparent"/>
<polygon points="109.556 320.046 131.031 307.826 198.705 382.502 " stroke="black" stroke-width="1" fill="transparent"/>
<polygon points="198.705 382.502 184.652 402.893 109.556 320.046 " stroke="black" stroke-width="1" fill="transparent"/>
<polygon points="451.268 224.311 434.779 176.568 446.496 159.548 " stroke="black" stroke-width="1" fill="transparent"/>
<polygon points="336.572 142.371 314.112 91.7963 314.189 91.7699 " stroke="black" stroke-width="1" fill="transparent"/>
<polygon points="336.572 142.371 297.424 155.875 314.112 91.7963 " stroke="black" stroke-width="1" fill="transparent"/>
<polygon points="395.699 -23.3227 346.902 32.7697 357.532 -23.1668 " stroke="black" stroke-width="1" fill="transparent"/>
<polygon points="139.462 -103.068 144.088 -45.9759 95.1106 -104.202 " stroke="black" stroke-width="1" fill="transparent"/>
<polygon points="88.7801 -47.3906 95.1106 -104.202 144.088 -45.976 " stroke="black" stroke-width="1" fill="transparent"/>
<polygon points="451.266 224.309 446.494 159.546 472.423 193.577 " stroke="black" stroke-width="1" fill="transparent"/>
<polygon points="446.535 159.486 472.423 193.577 446.494 159.546 " stroke="black" stroke-width="1" fill="transparent"/>
<polygon points="490.7 290.886 498.396 347.454 483.877 312.783 " stroke="black" stroke-width="1" fill="transparent"/>
<polygon points="151.705 416.406 151.634 416.457 163.68 394.647 " stroke="black" stroke-width="1" fill="transparent"/>
<polygon points="546.348 126.596 509.795 191.839 526.304 141.816 " stroke="black" stroke-width="1" fill="transparent"/>
<polygon points="366.788 61.0073 317.095 55.6301 373.49 5.71737 " stroke="black" stroke-width="1" fill="transparent"/>
<polygon points="184.652 402.893 184.576 402.936 109.556 320.046 " stroke="black" stroke-width="1" fill="transparent"/>
<polygon points="184.576 402.936 163.111 415.156 109.556 320.046 " stroke="black" stroke-width="1" fill="transparent"/>
<polygon points="293.589 74.6678 314.776 66.2668 301.573 131.071 " stroke="black" stroke-width="1" fill="transparent"/>
<polygon points="145.674 88.4853 101.142 91.8595 131.379 33.0438 " stroke="black" stroke-width="1" fill="transparent"/>
<polygon points="138.389 416.789 109.556 320.046 163.111 415.156 " stroke="black" stroke-width="1" fill="transparent"/>
<polygon points="99.6796 29.7604 124.402 28.1271 93.6001 86.6656 " stroke="black" stroke-width="1" fill="transparent"/>
<polygon points="15.6648 281.09 61.0634 302.956 36.1687 354.643 " stroke="black" stroke-width="1" fill="transparent"/>
<polygon points="15.6648 281.09 36.1687 354.643 -9.22995 332.777 " stroke="black" stroke-width="1" fill="transparent"/>
<polygon points="-17.6863 450.982 -9.22996 394.464 36.1687 403.945 " stroke="black" stroke-width="1" fill="transparent"/>
<polygon points="-163.598 454.728 -121.086 399.805 -146.646 450.177 " stroke="black" stroke-width="1" fill="transparent"/>
<polygon points="-128.246 490.435 -110.569 467.504 -118.266 533.274 " stroke="black" stroke-width="1" fill="transparent"/>
<polygon points="-118.301 533.319 -128.246 490.435 -118.266 533.274 " stroke="black" stroke-width="1" fill="transparent"/>
<polygon points="29.5368 402.132 29.5747 402.055 28.8864 426.906 " stroke="black" stroke-width="1" fill="transparent"/>
<polygon points="-100.975 368.521 -116.694 347.699 -57.8814 330.714 " stroke="black" stroke-width="1" fill="transparent"/>
<polygon points="-122.679 427.771 -108.81 426.728 -148.844 477.049 " stroke="black" stroke-width="1" fill="transparent"/>
<polygon points="-206.247 396.481 -245.159 433.793 -242.016 461.994 " stroke="black" stroke-width="1" fill="transparent"/>
<polygon points="-210.635 527.632 -215.564 487.935 -222.478 544.961 " stroke="black" stroke-width="1" fill="transparent"/>
<polygon points="-222.465 544.979 -215.554 487.954 -225.195 522.995 " stroke="black" stroke-width="1" fill="transparent"/>
<polygon points="-222.478 544.961 -222.468 545.038 -210.635 527.632 " stroke="black" stroke-width="1" fill="transparent"/>
<polygon points="-76.8643 462.129 -76.88 462.043 -64.5464 482.484 " stroke="black" stroke-width="1" fill="transparent"/>
<polygon points="-286.025 431.649 -281.855 455.688 -270.482 429.407 " stroke="black" stroke-width="1" fill="transparent"/>
<polygon points="-242.035 461.972 -202.341 431.633 -206.265 396.459 " stroke="black" stroke-width="1" fill="transparent"/>
<polygon points="-250.893 382.492 -295.526 395.937 -289.759 440.335 " stroke="black" stroke-width="1" fill="transparent"/>
<polygon points="-220.027 464.701 -228.858 488.204 -204.283 504.848 " stroke="black" stroke-width="1" fill="transparent"/>
<polygon points="-250.884 382.52 -289.748 440.368 -243.691 437.882 " stroke="black" stroke-width="1" fill="transparent"/>
<polygon points="-243.935 346.562 -286.422 332.85 -276.998 364.711 " stroke="black" stroke-width="1" fill="transparent"/>
<polygon points="-232.185 386.172 -243.939 346.452 -277.001 364.583 " stroke="black" stroke-width="1" fill="transparent"/>
<polygon points="-157.179 221.92 -143.845 251.356 -179.866 218.653 " stroke="black" stroke-width="1" fill="transparent"/>
<polygon points="-73.6001 309.892 -57.8814 330.714 -116.694 347.699 " stroke="black" stroke-width="1" fill="transparent"/>
<polygon points="-116.086 342.003 -167.067 367.138 -102.382 353.399 " stroke="black" stroke-width="1" fill="transparent"/>
<polygon points="-153.363 378.534 -102.382 353.399 -167.067 367.138 " stroke="black" stroke-width="1" fill="transparent"/>
<polygon points="-100.625 437.348 -123.954 391.246 -176.075 412.269 " stroke="black" stroke-width="1" fill="transparent"/>
<polygon points="-176.075 412.269 -152.746 458.371 -100.625 437.348 " stroke="black" stroke-width="1" fill="transparent"/>
<polygon points="-95.6798 483.999 -113.242 437.829 -165.238 461.223 " stroke="black" stroke-width="1" fill="transparent"/>
<polygon points="-95.6798 483.999 -165.238 461.223 -147.676 507.393 " stroke="black" stroke-width="1" fill="transparent"/>
<polygon points="-105.321 425.903 -68.2308 392.343 -119.787 415.626 " stroke="black" stroke-width="1" fill="transparent"/>
<polygon points="106.508 418.921 90.0871 422.731 53.9437 438.663 " stroke="black" stroke-width="1" fill="transparent"/>
</svg>