<svg width="1479.76" height="960.712" viewBox="-404.656 -759.986 1479.76 960.712" xmlns="http://www.w3.org/2000/svg">
<polygon points="122.511 -406.653 144.647 -472.358 176.532 -426.784 " stroke="black" stroke-width="1" fill="transparent"/>
<polygon points="109.702 -334.86 87.5659 -269.155 49.6393 -278.794 " stroke="black" stroke-width="1" fill="transparent"/>
<polygon points="49.6393 -278.794 87.5659 -269.155 63.3944 -243.864 " stroke="black" stroke-width="1" fill="transparent"/>
<polygon points="49.6393 -278.794 63.3944 -243.864 -19.8288 -176.341 " stroke="black" stroke-width="1" fill="transparent"/>
<polygon points="63.3944 -243.864 44.8997 -181.456 -19.8288 -176.341 " stroke="black" stroke-width="1" fill="transparent"/>
<polygon points="199.923 -136.294 189.804 -101.559 135.195 -131.179 " stroke="black" stroke-width="1" fill="transparent"/>
<polygon points="189.804 -101.559 199.923 -136.294 253.278 -100.93 " stroke="black" stroke-width="1" fill="transparent"/>
<polygon points="218.023 -59.0374 189.804 -101.559 253.278 -100.93 " stroke="black" stroke-width="1" fill="transparent"/>
<polygon points="182.686 -67.4375 189.804 -101.559 218.023 -59.0374 " stroke="black" stroke-width="1" fill="transparent"/>
<polygon points="41.0346 107.703 13.755 75.4517 49.0915 83.8518 " stroke="black" stroke-width="1" fill="transparent"/>
<polygon points="41.0346 107.703 -24.7451 94.3023 13.755 75.4517 " stroke="black" stroke-width="1" fill="transparent"/>
<polygon points="-24.7451 94.3023 41.0346 107.703 -41.0115 169.002 " stroke="black" stroke-width="1" fill="transparent"/>
<polygon points="41.0346 107.703 115.451 169.355 -41.0115 169.002 " stroke="black" stroke-width="1" fill="transparent"/>
<polygon points="41.0346 107.703 49.0915 83.8518 90.821 96.4203 " stroke="black" stroke-width="1" fill="transparent"/>
<polygon points="90.821 96.4203 93.9375 185.517 41.0346 107.703 " stroke="black" stroke-width="1" fill="transparent"/>
<polygon points="253.278 -100.93 258.66 -53.1976 218.023 -59.0374 " stroke="black" stroke-width="1" fill="transparent"/>
<polygon points="218.023 -59.0374 258.66 -53.1976 242.375 -31.0331 " stroke="black" stroke-width="1" fill="transparent"/>
<polygon points="109.539 -118.18 135.195 -131.179 189.804 -101.559 " stroke="black" stroke-width="1" fill="transparent"/>
<polygon points="109.539 -118.18 189.804 -101.559 184.213 -67.9766 " stroke="black" stroke-width="1" fill="transparent"/>
<polygon points="129.741 -71.4994 109.539 -118.18 184.213 -67.9766 " stroke="black" stroke-width="1" fill="transparent"/>
<polygon points="146.171 -46.5644 129.741 -71.4994 184.213 -67.9766 " stroke="black" stroke-width="1" fill="transparent"/>
<polygon points="146.171 -46.5644 51.424 -84.3903 129.741 -71.4994 " stroke="black" stroke-width="1" fill="transparent"/>
<polygon points="102.956 -11.1841 51.424 -84.3903 146.171 -46.5644 " stroke="black" stroke-width="1" fill="transparent"/>
<polygon points="49.6393 -278.794 -19.8288 -176.341 -10.8906 -242.383 " stroke="black" stroke-width="1" fill="transparent"/>
<polygon points="-37.7332 -136.049 -46.6714 -70.0077 -76.0465 -77.423 " stroke="black" stroke-width="1" fill="transparent"/>
<polygon points="-76.0465 -77.423 -46.6714 -70.0077 -72.4191 -58.4625 " stroke="black" stroke-width="1" fill="transparent"/>
<polygon points="-140.579 -47.1884 -76.0465 -77.423 -72.4191 -58.4625 " stroke="black" stroke-width="1" fill="transparent"/>
<polygon points="-140.579 -47.1884 -151.369 -68.0729 -76.0465 -77.423 " stroke="black" stroke-width="1" fill="transparent"/>
<polygon points="-151.369 -68.0729 -140.579 -47.1884 -173.328 -65.1681 " stroke="black" stroke-width="1" fill="transparent"/>
<polygon points="-198.026 -16.9333 -173.328 -65.1681 -140.579 -47.1884 " stroke="black" stroke-width="1" fill="transparent"/>
<polygon points="-73.7902 161.849 -146.145 159.905 -77.9851 148.631 " stroke="black" stroke-width="1" fill="transparent"/>
<polygon points="-73.7902 161.849 -122.064 200.727 -146.145 159.905 " stroke="black" stroke-width="1" fill="transparent"/>
<polygon points="-122.064 200.727 -73.7902 161.849 -17.0404 158.052 " stroke="black" stroke-width="1" fill="transparent"/>
<polygon points="-146.145 159.905 -122.064 200.727 -145.424 199.097 " stroke="black" stroke-width="1" fill="transparent"/>
<polygon points="-25.5287 169.957 -73.7902 161.849 -77.9851 148.631 " stroke="black" stroke-width="1" fill="transparent"/>
<polygon points="-76.0465 -77.423 -100.508 -84.6441 -37.7332 -136.049 " stroke="black" stroke-width="1" fill="transparent"/>
<polygon points="-75.4646 -14.1945 -51.0032 -6.97342 -85.9951 5.46543 " stroke="black" stroke-width="1" fill="transparent"/>
<polygon points="-51.0032 -6.97342 -120.714 55.5787 -85.9951 5.46543 " stroke="black" stroke-width="1" fill="transparent"/>
<polygon points="-120.714 55.5787 -136.231 49.8516 -85.9951 5.46543 " stroke="black" stroke-width="1" fill="transparent"/>
<polygon points="-85.9951 5.46543 -107.731 10.9541 -75.4646 -14.1945 " stroke="black" stroke-width="1" fill="transparent"/>
<polygon points="-112.599 53.81 -107.731 10.9541 -85.9951 5.46543 " stroke="black" stroke-width="1" fill="transparent"/>
<polygon points="-107.731 10.9541 -105.584 -9.99535 -75.4646 -14.1945 " stroke="black" stroke-width="1" fill="transparent"/>
<polygon points="-75.4646 -14.1945 -105.584 -9.99535 -69.2178 -81.9867 " stroke="black" stroke-width="1" fill="transparent"/>
<polygon points="-69.2178 -81.9867 -105.584 -9.99535 -222.388 -21.978 " stroke="black" stroke-width="1" fill="transparent"/>
<polygon points="-100.508 -84.6441 -49.1872 -170.796 -37.7332 -136.049 " stroke="black" stroke-width="1" fill="transparent"/>
<polygon points="-298.7 -315.035 -210.828 -382.217 -262.148 -296.065 " stroke="black" stroke-width="1" fill="transparent"/>
<polygon points="-256.107 -390.452 -210.828 -382.217 -298.7 -315.035 " stroke="black" stroke-width="1" fill="transparent"/>
<polygon points="-298.7 -315.035 -321.938 -326.812 -256.107 -390.452 " stroke="black" stroke-width="1" fill="transparent"/>
<polygon points="-298.7 -315.035 -262.148 -296.065 -342.78 -294.594 " stroke="black" stroke-width="1" fill="transparent"/>
<polygon points="-342.78 -294.594 -319.121 -329.334 -298.7 -315.035 " stroke="black" stroke-width="1" fill="transparent"/>
<polygon points="-319.121 -329.334 -342.78 -294.594 -404.656 -285.503 " stroke="black" stroke-width="1" fill="transparent"/>
<polygon points="109.702 -334.86 49.6393 -278.794 112.867 -366.456 " stroke="black" stroke-width="1" fill="transparent"/>
<polygon points="112.867 -366.456 49.6393 -278.794 70.5106 -337.183 " stroke="black" stroke-width="1" fill="transparent"/>
<polygon points="-10.2386 -240.869 70.5106 -337.183 49.6393 -278.794 " stroke="black" stroke-width="1" fill="transparent"/>
<polygon points="-1.30418 -280.52 70.5106 -337.183 -10.2386 -240.869 " stroke="black" stroke-width="1" fill="transparent"/>
<polygon points="-1.30418 -280.52 -10.2386 -240.869 -29.7386 -270.52 " stroke="black" stroke-width="1" fill="transparent"/>
<polygon points="-1.30418 -280.52 -29.7386 -270.52 -46.9182 -309.644 " stroke="black" stroke-width="1" fill="transparent"/>
<polygon points="-86.7766 -260.837 -46.9182 -309.644 -29.7386 -270.52 " stroke="black" stroke-width="1" fill="transparent"/>
<polygon points="112.867 -366.456 70.5106 -337.183 55.5287 -365.96 " stroke="black" stroke-width="1" fill="transparent"/>
<polygon points="55.5287 -365.96 70.5106 -337.183 27.5394 -338.378 " stroke="black" stroke-width="1" fill="transparent"/>
<polygon points="70.5106 -337.183 -8.52084 -292.301 27.5394 -338.378 " stroke="black" stroke-width="1" fill="transparent"/>
<polygon points="-21.5839 -344.332 27.5394 -338.378 -8.52084 -292.301 " stroke="black" stroke-width="1" fill="transparent"/>
<polygon points="27.5394 -338.378 -5.15375 -369.627 55.5287 -365.96 " stroke="black" stroke-width="1" fill="transparent"/>
<polygon points="-5.15375 -369.627 27.5394 -338.378 -17.4059 -349.314 " stroke="black" stroke-width="1" fill="transparent"/>
<polygon points="224.251 -476.275 176.532 -426.784 144.647 -472.358 " stroke="black" stroke-width="1" fill="transparent"/>
<polygon points="176.532 -426.784 224.251 -476.275 209.561 -430.341 " stroke="black" stroke-width="1" fill="transparent"/>
<polygon points="283.509 -376.898 248.675 -358.051 263.365 -403.985 " stroke="black" stroke-width="1" fill="transparent"/>
<polygon points="280.659 -343.661 248.675 -358.051 283.509 -376.898 " stroke="black" stroke-width="1" fill="transparent"/>
<polygon points="317.387 -372.461 280.659 -343.661 283.509 -376.898 " stroke="black" stroke-width="1" fill="transparent"/>
<polygon points="280.659 -343.661 317.387 -372.461 303.71 -329.771 " stroke="black" stroke-width="1" fill="transparent"/>
<polygon points="297.637 -443.275 331.624 -452.754 283.96 -400.585 " stroke="black" stroke-width="1" fill="transparent"/>
<polygon points="297.637 -443.275 363.148 -491.695 331.624 -452.754 " stroke="black" stroke-width="1" fill="transparent"/>
<polygon points="363.148 -491.695 363.007 -457.662 331.624 -452.754 " stroke="black" stroke-width="1" fill="transparent"/>
<polygon points="283.96 -400.585 331.624 -452.754 315.345 -392.33 " stroke="black" stroke-width="1" fill="transparent"/>
<polygon points="364.617 -461.58 315.345 -392.33 331.624 -452.754 " stroke="black" stroke-width="1" fill="transparent"/>
<polygon points="353.926 -400.801 315.345 -392.33 364.617 -461.58 " stroke="black" stroke-width="1" fill="transparent"/>
<polygon points="317.387 -372.461 283.509 -376.898 306.148 -412.122 " stroke="black" stroke-width="1" fill="transparent"/>
<polygon points="381.479 -422.382 317.387 -372.461 306.148 -412.122 " stroke="black" stroke-width="1" fill="transparent"/>
<polygon points="283.509 -376.898 263.365 -403.985 294.994 -439.506 " stroke="black" stroke-width="1" fill="transparent"/>
<polygon points="283.509 -376.898 294.994 -439.506 311.652 -411.835 " stroke="black" stroke-width="1" fill="transparent"/>
<polygon points="192.671 -498.025 224.251 -476.275 144.647 -472.358 " stroke="black" stroke-width="1" fill="transparent"/>
<polygon points="173.863 -586.704 214.287 -595.278 205.443 -564.954 " stroke="black" stroke-width="1" fill="transparent"/>
<polygon points="214.287 -595.278 173.863 -586.704 184.529 -613.056 " stroke="black" stroke-width="1" fill="transparent"/>
<polygon points="184.529 -613.056 255.398 -637.551 214.287 -595.278 " stroke="black" stroke-width="1" fill="transparent"/>
<polygon points="184.529 -613.056 210.631 -675.294 255.398 -637.551 " stroke="black" stroke-width="1" fill="transparent"/>
<polygon points="238.002 -685.096 255.398 -637.551 210.631 -675.294 " stroke="black" stroke-width="1" fill="transparent"/>
<polygon points="210.631 -675.294 204.29 -688.907 238.002 -685.096 " stroke="black" stroke-width="1" fill="transparent"/>
<polygon points="238.002 -685.096 204.29 -688.907 262.559 -725.648 " stroke="black" stroke-width="1" fill="transparent"/>
<polygon points="214.287 -595.278 243.706 -597.561 205.443 -564.954 " stroke="black" stroke-width="1" fill="transparent"/>
<polygon points="214.287 -595.278 253.268 -638.213 243.706 -597.561 " stroke="black" stroke-width="1" fill="transparent"/>
<polygon points="144.647 -472.358 144.703 -502.636 192.671 -498.025 " stroke="black" stroke-width="1" fill="transparent"/>
<polygon points="218.827 -523.856 192.671 -498.025 144.703 -502.636 " stroke="black" stroke-width="1" fill="transparent"/>
<polygon points="144.703 -502.636 211.357 -542.396 218.827 -523.856 " stroke="black" stroke-width="1" fill="transparent"/>
<polygon points="218.827 -523.856 211.357 -542.396 286.68 -581.142 " stroke="black" stroke-width="1" fill="transparent"/>
<polygon points="178.237 -390.191 122.511 -406.653 176.532 -426.784 " stroke="black" stroke-width="1" fill="transparent"/>
<polygon points="122.511 -406.653 178.237 -390.191 150.006 -349.695 " stroke="black" stroke-width="1" fill="transparent"/>
<polygon points="308.654 -340.183 336.885 -380.679 334.985 -349.003 " stroke="black" stroke-width="1" fill="transparent"/>
<polygon points="336.885 -380.679 384.463 -382.031 334.985 -349.003 " stroke="black" stroke-width="1" fill="transparent"/>
<polygon points="384.463 -382.031 375.501 -293.178 334.985 -349.003 " stroke="black" stroke-width="1" fill="transparent"/>
<polygon points="375.501 -293.178 384.463 -382.031 408.725 -316.018 " stroke="black" stroke-width="1" fill="transparent"/>
<polygon points="408.725 -316.018 392.131 -269.296 375.501 -293.178 " stroke="black" stroke-width="1" fill="transparent"/>
<polygon points="392.131 -269.296 408.725 -316.018 465.204 -338.593 " stroke="black" stroke-width="1" fill="transparent"/>
<polygon points="392.131 -269.296 465.204 -338.593 458.565 -289.895 " stroke="black" stroke-width="1" fill="transparent"/>
<polygon points="458.565 -289.895 465.204 -338.593 484.624 -322.428 " stroke="black" stroke-width="1" fill="transparent"/>
<polygon points="486.976 -290.136 458.565 -289.895 484.624 -322.428 " stroke="black" stroke-width="1" fill="transparent"/>
<polygon points="530.967 -328.655 486.976 -290.136 484.624 -322.428 " stroke="black" stroke-width="1" fill="transparent"/>
<polygon points="530.967 -328.655 537.065 -297.497 486.976 -290.136 " stroke="black" stroke-width="1" fill="transparent"/>
<polygon points="308.654 -340.183 334.985 -349.003 339.769 -279.639 " stroke="black" stroke-width="1" fill="transparent"/>
<polygon points="339.769 -279.639 334.985 -349.003 393.135 -306.802 " stroke="black" stroke-width="1" fill="transparent"/>
<polygon points="339.769 -279.639 393.135 -306.802 377.226 -250.962 " stroke="black" stroke-width="1" fill="transparent"/>
<polygon points="377.226 -250.962 393.135 -306.802 410.933 -283.746 " stroke="black" stroke-width="1" fill="transparent"/>
<polygon points="418.435 -228.432 377.226 -250.962 410.933 -283.746 " stroke="black" stroke-width="1" fill="transparent"/>
<polygon points="418.435 -228.432 410.933 -283.746 476.753 -302.199 " stroke="black" stroke-width="1" fill="transparent"/>
<polygon points="469.264 -239.155 418.435 -228.432 476.753 -302.199 " stroke="black" stroke-width="1" fill="transparent"/>
<polygon points="499.441 -295.262 469.264 -239.155 476.753 -302.199 " stroke="black" stroke-width="1" fill="transparent"/>
<polygon points="513.001 -246.816 469.264 -239.155 499.441 -295.262 " stroke="black" stroke-width="1" fill="transparent"/>
<polygon points="540.179 -288.536 513.001 -246.816 499.441 -295.262 " stroke="black" stroke-width="1" fill="transparent"/>
<polygon points="513.001 -246.816 540.179 -288.536 468.406 -161.217 " stroke="black" stroke-width="1" fill="transparent"/>
<polygon points="339.769 -279.639 377.226 -250.962 355.306 -217.8 " stroke="black" stroke-width="1" fill="transparent"/>
<polygon points="693.105 -368.623 714.622 -310.858 671.185 -335.461 " stroke="black" stroke-width="1" fill="transparent"/>
<polygon points="693.105 -368.623 729.846 -342.151 714.622 -310.858 " stroke="black" stroke-width="1" fill="transparent"/>
<polygon points="755.43 -280.501 714.622 -310.858 729.846 -342.151 " stroke="black" stroke-width="1" fill="transparent"/>
<polygon points="722.033 -239.118 714.622 -310.858 755.43 -280.501 " stroke="black" stroke-width="1" fill="transparent"/>
<polygon points="722.033 -239.118 755.43 -280.501 758.325 -268.941 " stroke="black" stroke-width="1" fill="transparent"/>
<polygon points="700.352 -198.064 722.033 -239.118 758.325 -268.941 " stroke="black" stroke-width="1" fill="transparent"/>
<polygon points="1054.58 -133.613 1020.94 -59.9723 996.61 -62.7356 " stroke="black" stroke-width="1" fill="transparent"/>
<polygon points="1054.58 -133.613 1042.24 -55.2949 1020.94 -59.9723 " stroke="black" stroke-width="1" fill="transparent"/>
<polygon points="1042.24 -55.2949 974.319 1.67019 1020.94 -59.9723 " stroke="black" stroke-width="1" fill="transparent"/>
<polygon points="974.319 1.67019 1042.24 -55.2949 972.546 27.4744 " stroke="black" stroke-width="1" fill="transparent"/>
<polygon points="930.485 72.7547 974.319 1.67019 972.546 27.4744 " stroke="black" stroke-width="1" fill="transparent"/>
<polygon points="930.485 72.7547 972.546 27.4744 933.884 88.4193 " stroke="black" stroke-width="1" fill="transparent"/>
<polygon points="1020.94 -59.9723 974.319 1.67019 912.308 36.1915 " stroke="black" stroke-width="1" fill="transparent"/>
<polygon points="914.156 71.681 912.308 36.1915 974.319 1.67019 " stroke="black" stroke-width="1" fill="transparent"/>
<polygon points="912.308 36.1915 914.156 71.681 889.108 85.7078 " stroke="black" stroke-width="1" fill="transparent"/>
<polygon points="996.61 -62.7356 1020.94 -59.9723 973.714 -38.7208 " stroke="black" stroke-width="1" fill="transparent"/>
<polygon points="973.714 -38.7208 1020.94 -59.9723 917.07 38.8018 " stroke="black" stroke-width="1" fill="transparent"/>
<polygon points="899.081 26.8469 973.714 -38.7208 917.07 38.8018 " stroke="black" stroke-width="1" fill="transparent"/>
<polygon points="855.354 67.7073 899.081 26.8469 917.07 38.8018 " stroke="black" stroke-width="1" fill="transparent"/>
<polygon points="782.606 -358.571 755.43 -280.501 729.846 -342.151 " stroke="black" stroke-width="1" fill="transparent"/>
<polygon points="870.131 -441.335 886.2 -424.342 842.955 -363.266 " stroke="black" stroke-width="1" fill="transparent"/>
<polygon points="917.217 -461.467 886.2 -424.342 870.131 -441.335 " stroke="black" stroke-width="1" fill="transparent"/>
<polygon points="886.2 -424.342 917.217 -461.467 913.912 -426.275 " stroke="black" stroke-width="1" fill="transparent"/>
<polygon points="913.912 -426.275 917.217 -461.467 922.02 -391.371 " stroke="black" stroke-width="1" fill="transparent"/>
<polygon points="922.02 -391.371 886.422 -307.834 913.912 -426.275 " stroke="black" stroke-width="1" fill="transparent"/>
<polygon points="922.02 -391.371 927.638 -308.819 886.422 -307.834 " stroke="black" stroke-width="1" fill="transparent"/>
<polygon points="927.638 -308.819 937.307 -269.745 886.422 -307.834 " stroke="black" stroke-width="1" fill="transparent"/>
<polygon points="854.969 -358.566 842.955 -363.266 886.2 -424.342 " stroke="black" stroke-width="1" fill="transparent"/>
<polygon points="854.969 -358.566 886.2 -424.342 900.82 -350.487 " stroke="black" stroke-width="1" fill="transparent"/>
<polygon points="914.478 -427.259 900.82 -350.487 886.2 -424.342 " stroke="black" stroke-width="1" fill="transparent"/>
<polygon points="914.478 -427.259 918.258 -321.229 900.82 -350.487 " stroke="black" stroke-width="1" fill="transparent"/>
<polygon points="854.969 -358.566 900.82 -350.487 896.665 -309.776 " stroke="black" stroke-width="1" fill="transparent"/>
<polygon points="627.923 -301.292 671.185 -335.461 714.622 -310.858 " stroke="black" stroke-width="1" fill="transparent"/>
<polygon points="714.622 -310.858 685.7 -290.322 627.923 -301.292 " stroke="black" stroke-width="1" fill="transparent"/>
<polygon points="936.062 -278.934 964.984 -299.47 962.723 -249.768 " stroke="black" stroke-width="1" fill="transparent"/>
<polygon points="962.723 -249.768 964.984 -299.47 994.059 -239.952 " stroke="black" stroke-width="1" fill="transparent"/>
<polygon points="994.059 -239.952 964.979 -219.434 962.723 -249.768 " stroke="black" stroke-width="1" fill="transparent"/>
<polygon points="997.972 -207.158 964.979 -219.434 994.059 -239.952 " stroke="black" stroke-width="1" fill="transparent"/>
<polygon points="1038.64 -122.463 1071.64 -110.187 1031.19 -79.4621 " stroke="black" stroke-width="1" fill="transparent"/>
<polygon points="1071.64 -110.187 1069.01 -88.258 1031.19 -79.4621 " stroke="black" stroke-width="1" fill="transparent"/>
<polygon points="1031.19 -79.4621 1069.01 -88.258 1071.3 -29.0505 " stroke="black" stroke-width="1" fill="transparent"/>
<polygon points="1031.19 -79.4621 1071.3 -29.0505 1033.65 -6.90533 " stroke="black" stroke-width="1" fill="transparent"/>
<polygon points="1071.3 -29.0505 1047.36 14.5033 1033.65 -6.90533 " stroke="black" stroke-width="1" fill="transparent"/>
<polygon points="1031.19 -79.4621 1015.4 -108.913 1038.64 -122.463 " stroke="black" stroke-width="1" fill="transparent"/>
<polygon points="1031.19 -79.4621 1009.53 -47.7108 1015.4 -108.913 " stroke="black" stroke-width="1" fill="transparent"/>
<polygon points="1067.28 -26.2233 1009.53 -47.7108 1031.19 -79.4621 " stroke="black" stroke-width="1" fill="transparent"/>
<polygon points="1017.57 -7.74677 1009.53 -47.7108 1067.28 -26.2233 " stroke="black" stroke-width="1" fill="transparent"/>
<polygon points="1017.57 -7.74677 1067.28 -26.2233 1075.11 -1.12487 " stroke="black" stroke-width="1" fill="transparent"/>
<polygon points="936.062 -278.934 962.723 -249.768 903.283 -218.468 " stroke="black" stroke-width="1" fill="transparent"/>
<polygon points="903.283 -218.468 962.723 -249.768 974.828 -224.926 " stroke="black" stroke-width="1" fill="transparent"/>
<polygon points="903.283 -218.468 974.828 -224.926 926.602 -207.216 " stroke="black" stroke-width="1" fill="transparent"/>
<polygon points="957.862 -206.012 926.602 -207.216 974.828 -224.926 " stroke="black" stroke-width="1" fill="transparent"/>
<polygon points="926.602 -207.216 957.862 -206.012 922.043 -203.103 " stroke="black" stroke-width="1" fill="transparent"/>
<polygon points="957.862 -206.012 1013.14 -185.881 922.043 -203.103 " stroke="black" stroke-width="1" fill="transparent"/>
<polygon points="814.355 -205.597 903.283 -218.468 926.602 -207.216 " stroke="black" stroke-width="1" fill="transparent"/>
<polygon points="685.7 -290.322 663.996 -274.48 627.923 -301.292 " stroke="black" stroke-width="1" fill="transparent"/>
<polygon points="663.996 -274.48 685.7 -290.322 677.052 -235.837 " stroke="black" stroke-width="1" fill="transparent"/>
<polygon points="677.052 -235.837 622.968 -239.377 663.996 -274.48 " stroke="black" stroke-width="1" fill="transparent"/>
<polygon points="585.275 -172.512 622.969 -239.377 677.052 -235.837 " stroke="black" stroke-width="1" fill="transparent"/>
<polygon points="339.769 -279.639 300.643 -292.631 308.654 -340.183 " stroke="black" stroke-width="1" fill="transparent"/>
<polygon points="307.231 -226.358 300.643 -292.631 339.769 -279.639 " stroke="black" stroke-width="1" fill="transparent"/>
<polygon points="307.231 -226.358 267.813 -224.074 300.643 -292.631 " stroke="black" stroke-width="1" fill="transparent"/>
<polygon points="307.231 -226.358 249.755 -183.48 267.813 -224.074 " stroke="black" stroke-width="1" fill="transparent"/>
<polygon points="339.769 -279.639 349.154 -214.522 307.231 -226.358 " stroke="black" stroke-width="1" fill="transparent"/>
<polygon points="349.154 -214.522 303.804 -182.711 307.231 -226.358 " stroke="black" stroke-width="1" fill="transparent"/>
<polygon points="303.804 -182.711 256.233 -178.569 307.231 -226.358 " stroke="black" stroke-width="1" fill="transparent"/>
<polygon points="303.804 -182.711 256.778 -146.306 256.233 -178.569 " stroke="black" stroke-width="1" fill="transparent"/>
<polygon points="303.804 -182.711 329.814 -148.115 256.778 -146.306 " stroke="black" stroke-width="1" fill="transparent"/>
<polygon points="329.814 -148.115 285.399 -116.209 256.778 -146.306 " stroke="black" stroke-width="1" fill="transparent"/>
<polygon points="94.8145 -383.123 122.511 -406.653 150.006 -349.695 " stroke="black" stroke-width="1" fill="transparent"/>
<polygon points="-109.773 -214.347 -133.108 -256.276 -77.9161 -222.848 " stroke="black" stroke-width="1" fill="transparent"/>
<polygon points="-109.773 -214.347 -160.075 -191.755 -133.108 -256.276 " stroke="black" stroke-width="1" fill="transparent"/>
<polygon points="-160.075 -191.755 -109.773 -214.347 -119.216 -146.316 " stroke="black" stroke-width="1" fill="transparent"/>
<polygon points="-77.9161 -222.848 -79.1338 -178.013 -109.773 -214.347 " stroke="black" stroke-width="1" fill="transparent"/>
<polygon points="-79.1338 -178.013 -126.108 -143.877 -109.773 -214.347 " stroke="black" stroke-width="1" fill="transparent"/>
<polygon points="-126.108 -143.877 -79.1338 -178.013 -96.912 -113 " stroke="black" stroke-width="1" fill="transparent"/>
<polygon points="-126.108 -143.877 -96.912 -113 -153.166 -84.9787 " stroke="black" stroke-width="1" fill="transparent"/>
<polygon points="-96.912 -113 -116.37 -72.1572 -153.166 -84.9787 " stroke="black" stroke-width="1" fill="transparent"/>
<polygon points="-173.315 -63.4891 -153.166 -84.9787 -116.37 -72.1572 " stroke="black" stroke-width="1" fill="transparent"/>
<polygon points="-173.315 -63.4891 -116.37 -72.1572 -135.976 -33.7396 " stroke="black" stroke-width="1" fill="transparent"/>
<polygon points="-173.315 -63.4891 -135.976 -33.7396 -162.059 21.6528 " stroke="black" stroke-width="1" fill="transparent"/>
<polygon points="212.632 -437.72 178.237 -390.191 176.532 -426.784 " stroke="black" stroke-width="1" fill="transparent"/>
<polygon points="245.26 -409.634 178.237 -390.191 212.632 -437.72 " stroke="black" stroke-width="1" fill="transparent"/>
<polygon points="214.963 -377.909 178.237 -390.191 245.26 -409.634 " stroke="black" stroke-width="1" fill="transparent"/>
<polygon points="245.26 -409.634 253.658 -352.021 214.963 -377.909 " stroke="black" stroke-width="1" fill="transparent"/>
<polygon points="301.712 -589.957 349.045 -575.139 310.11 -532.344 " stroke="black" stroke-width="1" fill="transparent"/>
<polygon points="380.372 -625.546 349.045 -575.139 301.712 -589.957 " stroke="black" stroke-width="1" fill="transparent"/>
<polygon points="349.045 -575.139 380.372 -625.546 417.26 -614.506 " stroke="black" stroke-width="1" fill="transparent"/>
<polygon points="455.275 -689.573 417.26 -614.506 380.372 -625.546 " stroke="black" stroke-width="1" fill="transparent"/>
<polygon points="508.045 -708.502 417.26 -614.506 455.275 -689.573 " stroke="black" stroke-width="1" fill="transparent"/>
<polygon points="455.749 -586.253 417.26 -614.506 508.045 -708.502 " stroke="black" stroke-width="1" fill="transparent"/>
<polygon points="508.045 -708.502 455.275 -689.573 521.955 -759.986 " stroke="black" stroke-width="1" fill="transparent"/>
<polygon points="417.26 -614.506 391.328 -578.094 349.045 -575.139 " stroke="black" stroke-width="1" fill="transparent"/>
<polygon points="419.386 -562.902 391.328 -578.094 417.26 -614.506 " stroke="black" stroke-width="1" fill="transparent"/>
<polygon points="349.045 -575.139 327.727 -523.913 310.11 -532.344 " stroke="black" stroke-width="1" fill="transparent"/>
<polygon points="315.319 -372.258 279.641 -384.57 300.959 -435.797 " stroke="black" stroke-width="1" fill="transparent"/>
<polygon points="299.533 -364.106 279.641 -384.57 315.319 -372.258 " stroke="black" stroke-width="1" fill="transparent"/>
<polygon points="299.533 -364.106 315.319 -372.258 304.778 -322.062 " stroke="black" stroke-width="1" fill="transparent"/>
<polygon points="283.037 -302.316 299.533 -364.106 304.778 -322.062 " stroke="black" stroke-width="1" fill="transparent"/>
<polygon points="283.037 -302.316 304.778 -322.062 303.173 -280.098 " stroke="black" stroke-width="1" fill="transparent"/>
<polygon points="315.319 -372.258 300.959 -435.797 345.762 -443.487 " stroke="black" stroke-width="1" fill="transparent"/>
<polygon points="353.27 -389.189 315.319 -372.258 345.762 -443.487 " stroke="black" stroke-width="1" fill="transparent"/>
<polygon points="298.031 -320.01 315.319 -372.258 353.27 -389.189 " stroke="black" stroke-width="1" fill="transparent"/>
<polygon points="307.198 -268.092 298.031 -320.01 353.27 -389.189 " stroke="black" stroke-width="1" fill="transparent"/>
<polygon points="291.177 -275.943 298.031 -320.01 307.198 -268.092 " stroke="black" stroke-width="1" fill="transparent"/>
<polygon points="291.177 -275.943 307.198 -268.092 325.962 -187.206 " stroke="black" stroke-width="1" fill="transparent"/>
<polygon points="325.962 -187.206 307.198 -268.092 331.432 -189.593 " stroke="black" stroke-width="1" fill="transparent"/>
<polygon points="307.198 -268.092 353.27 -389.189 379.788 -274.258 " stroke="black" stroke-width="1" fill="transparent"/>
<polygon points="394.417 -459.517 353.27 -389.189 345.762 -443.487 " stroke="black" stroke-width="1" fill="transparent"/>
<polygon points="394.417 -459.517 437.952 -463.472 353.27 -389.189 " stroke="black" stroke-width="1" fill="transparent"/>
<polygon points="310.11 -532.344 327.727 -523.913 280.809 -467.567 " stroke="black" stroke-width="1" fill="transparent"/>
<polygon points="280.809 -467.567 327.727 -523.913 352.84 -507.722 " stroke="black" stroke-width="1" fill="transparent"/>
<polygon points="352.84 -507.722 284.469 -441.121 280.809 -467.567 " stroke="black" stroke-width="1" fill="transparent"/>
<polygon points="328.878 -443.895 284.469 -441.121 352.84 -507.722 " stroke="black" stroke-width="1" fill="transparent"/>
<polygon points="214.963 -377.909 253.658 -352.021 190.295 -290.001 " stroke="black" stroke-width="1" fill="transparent"/>
<polygon points="253.658 -352.021 238.084 -290.688 190.295 -290.001 " stroke="black" stroke-width="1" fill="transparent"/>
<polygon points="245.26 -409.634 212.632 -437.72 261.597 -446.128 " stroke="black" stroke-width="1" fill="transparent"/>
<polygon points="301.699 -454.946 245.26 -409.634 261.597 -446.128 " stroke="black" stroke-width="1" fill="transparent"/>
<polygon points="245.26 -409.634 301.699 -454.946 322.191 -432.94 " stroke="black" stroke-width="1" fill="transparent"/>
<polygon points="346.995 -474.453 322.191 -432.94 301.699 -454.946 " stroke="black" stroke-width="1" fill="transparent"/>
<polygon points="543.663 -319.531 478.789 -260.587 503.592 -302.1 " stroke="black" stroke-width="1" fill="transparent"/>
<polygon points="562.573 -314.517 478.789 -260.587 543.663 -319.531 " stroke="black" stroke-width="1" fill="transparent"/>
<polygon points="614.71 -376.72 562.573 -314.517 543.663 -319.531 " stroke="black" stroke-width="1" fill="transparent"/>
<polygon points="562.573 -314.517 614.71 -376.72 644.133 -375.796 " stroke="black" stroke-width="1" fill="transparent"/>
<polygon points="614.71 -376.72 543.663 -319.531 605.451 -380.283 " stroke="black" stroke-width="1" fill="transparent"/>
<polygon points="503.592 -302.1 531.743 -334.814 543.663 -319.531 " stroke="black" stroke-width="1" fill="transparent"/>
<polygon points="627.003 -394.96 543.663 -319.531 531.743 -334.814 " stroke="black" stroke-width="1" fill="transparent"/>
<polygon points="543.663 -319.531 627.003 -394.96 617.564 -370.663 " stroke="black" stroke-width="1" fill="transparent"/>
<polygon points="627.003 -394.96 630.672 -372.148 617.564 -370.663 " stroke="black" stroke-width="1" fill="transparent"/>
<polygon points="603.911 -399.048 627.003 -394.96 531.743 -334.814 " stroke="black" stroke-width="1" fill="transparent"/>
<polygon points="627.003 -394.96 603.911 -399.048 637.308 -423.14 " stroke="black" stroke-width="1" fill="transparent"/>
</svg>