<svg width="1184.74" height="814.116" viewBox="-506.907 -503.272 1184.74 814.116" xmlns="http://www.w3.org/2000/svg">
<polygon points="-120.394 -236.248 -100.34 -301.405 -48.3975 -261.846 " stroke="black" stroke-width="1" fill="transparent"/>
<polygon points="-133.409 -162.729 -153.462 -97.5722 -192.575 -106.899 " stroke="black" stroke-width="1" fill="transparent"/>
<polygon points="-192.575 -106.899 -153.462 -97.5722 -177.167 -72.4039 " stroke="black" stroke-width="1" fill="transparent"/>
<polygon points="-192.575 -106.899 -177.167 -72.4039 -271.096 3.82382 " stroke="black" stroke-width="1" fill="transparent"/>
<polygon points="-177.167 -72.4039 -197.769 9.33241 -271.096 3.82382 " stroke="black" stroke-width="1" fill="transparent"/>
<polygon points="42.9535 -97.5486 116.281 -92.04 134.874 -34.4373 " stroke="black" stroke-width="1" fill="transparent"/>
<polygon points="134.874 -34.4373 116.281 -92.04 175.945 -77.165 " stroke="black" stroke-width="1" fill="transparent"/>
<polygon points="175.945 -77.165 170.766 -13.4676 134.874 -34.4373 " stroke="black" stroke-width="1" fill="transparent"/>
<polygon points="107.663 -13.1698 134.874 -34.4373 170.766 -13.4676 " stroke="black" stroke-width="1" fill="transparent"/>
<polygon points="170.766 -13.4676 126.562 98.9727 107.663 -13.1698 " stroke="black" stroke-width="1" fill="transparent"/>
<polygon points="170.766 -13.4676 174.732 44.0976 126.562 98.9727 " stroke="black" stroke-width="1" fill="transparent"/>
<polygon points="175.304 110.83 126.562 98.9727 174.732 44.0976 " stroke="black" stroke-width="1" fill="transparent"/>
<polygon points="107.663 -13.1698 126.562 98.9727 33.6284 26.7387 " stroke="black" stroke-width="1" fill="transparent"/>
<polygon points="24.2813 -70.553 42.9535 -97.5486 134.874 -34.4373 " stroke="black" stroke-width="1" fill="transparent"/>
<polygon points="117.337 -9.72783 24.2813 -70.553 134.874 -34.4373 " stroke="black" stroke-width="1" fill="transparent"/>
<polygon points="117.337 -9.72783 -28.9964 -60.9967 24.2813 -70.553 " stroke="black" stroke-width="1" fill="transparent"/>
<polygon points="22.842 13.6867 -28.9964 -60.9967 117.337 -9.72783 " stroke="black" stroke-width="1" fill="transparent"/>
<polygon points="-192.575 -106.899 -271.096 3.82382 -252.981 -70.5153 " stroke="black" stroke-width="1" fill="transparent"/>
<polygon points="-332.36 21.7655 -350.476 96.1046 -369.19 80.0065 " stroke="black" stroke-width="1" fill="transparent"/>
<polygon points="-433.017 115.251 -369.19 80.0065 -350.476 96.1046 " stroke="black" stroke-width="1" fill="transparent"/>
<polygon points="-433.017 115.251 -452.93 89.7799 -369.19 80.0065 " stroke="black" stroke-width="1" fill="transparent"/>
<polygon points="-433.017 115.251 -506.907 167.336 -452.93 89.7799 " stroke="black" stroke-width="1" fill="transparent"/>
<polygon points="-354.275 120.47 -433.017 115.251 -350.476 96.1046 " stroke="black" stroke-width="1" fill="transparent"/>
<polygon points="-354.274 120.47 -407.885 156.217 -433.017 115.251 " stroke="black" stroke-width="1" fill="transparent"/>
<polygon points="-369.19 80.0065 -394.108 77.7622 -332.36 21.7655 " stroke="black" stroke-width="1" fill="transparent"/>
<polygon points="-369.19 80.0065 -447.68 146.721 -394.108 77.7622 " stroke="black" stroke-width="1" fill="transparent"/>
<polygon points="-447.68 146.721 -413.298 70.5641 -394.108 77.7622 " stroke="black" stroke-width="1" fill="transparent"/>
<polygon points="-394.108 77.7622 -413.298 70.5641 -358.571 -1.56086 " stroke="black" stroke-width="1" fill="transparent"/>
<polygon points="-358.571 -1.56086 -413.298 70.5641 -505.077 28.1048 " stroke="black" stroke-width="1" fill="transparent"/>
<polygon points="-133.409 -162.729 -192.575 -106.899 -131.405 -194.019 " stroke="black" stroke-width="1" fill="transparent"/>
<polygon points="-131.405 -194.019 -192.575 -106.899 -173.528 -164.808 " stroke="black" stroke-width="1" fill="transparent"/>
<polygon points="-252.258 -69.0255 -173.528 -164.808 -192.575 -106.899 " stroke="black" stroke-width="1" fill="transparent"/>
<polygon points="-261.2 -102.096 -173.528 -164.808 -252.258 -69.0255 " stroke="black" stroke-width="1" fill="transparent"/>
<polygon points="-309.855 -11.0987 -261.2 -102.096 -252.258 -69.0255 " stroke="black" stroke-width="1" fill="transparent"/>
<polygon points="-354.116 -29.1108 -261.2 -102.096 -309.855 -11.0987 " stroke="black" stroke-width="1" fill="transparent"/>
<polygon points="-354.116 -29.1108 -309.855 -11.0987 -397.896 -5.74754 " stroke="black" stroke-width="1" fill="transparent"/>
<polygon points="-131.405 -194.019 -173.528 -164.808 -186.672 -205.605 " stroke="black" stroke-width="1" fill="transparent"/>
<polygon points="-186.672 -205.605 -173.528 -164.808 -260.823 -168.662 " stroke="black" stroke-width="1" fill="transparent"/>
<polygon points="-173.528 -164.808 -268.366 -120.534 -260.823 -168.662 " stroke="black" stroke-width="1" fill="transparent"/>
<polygon points="-320.901 -132.452 -260.823 -168.662 -268.366 -120.534 " stroke="black" stroke-width="1" fill="transparent"/>
<polygon points="-320.901 -132.452 -268.366 -120.534 -368.802 -57.1309 " stroke="black" stroke-width="1" fill="transparent"/>
<polygon points="-260.823 -168.662 -258.593 -197.517 -186.672 -205.605 " stroke="black" stroke-width="1" fill="transparent"/>
<polygon points="-258.593 -197.517 -260.823 -168.662 -318.358 -159.688 " stroke="black" stroke-width="1" fill="transparent"/>
<polygon points="-19.2204 -305.673 -48.3975 -261.846 -100.34 -301.405 " stroke="black" stroke-width="1" fill="transparent"/>
<polygon points="-14.098 -85.2686 -68.3216 -91.615 -39.1444 -135.442 " stroke="black" stroke-width="1" fill="transparent"/>
<polygon points="-47.0241 -42.4215 -68.3216 -91.615 -14.098 -85.2686 " stroke="black" stroke-width="1" fill="transparent"/>
<polygon points="38.5081 -68.0794 -47.0241 -42.4215 -14.098 -85.2686 " stroke="black" stroke-width="1" fill="transparent"/>
<polygon points="-47.0241 -42.4215 38.5081 -68.0794 15.7598 -36.5546 " stroke="black" stroke-width="1" fill="transparent"/>
<polygon points="186.337 82.5933 109.495 126.71 132.243 95.1856 " stroke="black" stroke-width="1" fill="transparent"/>
<polygon points="196.495 95.7088 109.495 126.71 186.337 82.5933 " stroke="black" stroke-width="1" fill="transparent"/>
<polygon points="196.495 95.7088 114.834 161.868 109.495 126.71 " stroke="black" stroke-width="1" fill="transparent"/>
<polygon points="234.725 104.876 114.834 161.868 196.495 95.7088 " stroke="black" stroke-width="1" fill="transparent"/>
<polygon points="105.664 218.373 114.834 161.868 234.725 104.876 " stroke="black" stroke-width="1" fill="transparent"/>
<polygon points="234.725 104.876 196.495 95.7088 285.763 52.2216 " stroke="black" stroke-width="1" fill="transparent"/>
<polygon points="294.325 12.4019 196.495 95.7088 186.337 82.5933 " stroke="black" stroke-width="1" fill="transparent"/>
<polygon points="196.495 95.7088 294.325 12.4019 284.022 45.0204 " stroke="black" stroke-width="1" fill="transparent"/>
<polygon points="132.243 95.1856 189.764 58.9101 186.337 82.5933 " stroke="black" stroke-width="1" fill="transparent"/>
<polygon points="299.753 34.7724 186.337 82.5933 189.764 58.9101 " stroke="black" stroke-width="1" fill="transparent"/>
<polygon points="276.027 20.8833 299.753 34.7724 189.764 58.9101 " stroke="black" stroke-width="1" fill="transparent"/>
<polygon points="189.764 58.9101 216.178 24.5908 276.027 20.8833 " stroke="black" stroke-width="1" fill="transparent"/>
<polygon points="15.7598 -36.5546 -41.7883 3.96893 -47.0241 -42.4215 " stroke="black" stroke-width="1" fill="transparent"/>
<polygon points="-41.7883 3.96893 15.7598 -36.5546 20.2961 -1.00183 " stroke="black" stroke-width="1" fill="transparent"/>
<polygon points="20.2961 -1.00183 -22.5681 26.2576 -41.7883 3.96893 " stroke="black" stroke-width="1" fill="transparent"/>
<polygon points="-25.22 61.3366 -22.5681 26.2576 20.2961 -1.00183 " stroke="black" stroke-width="1" fill="transparent"/>
<polygon points="-14.098 -85.2686 32.7905 -118.837 38.5081 -68.0794 " stroke="black" stroke-width="1" fill="transparent"/>
<polygon points="86.3037 -140.826 38.5081 -68.0794 32.7905 -118.837 " stroke="black" stroke-width="1" fill="transparent"/>
<polygon points="98.1549 -89.661 38.5081 -68.0794 86.3037 -140.826 " stroke="black" stroke-width="1" fill="transparent"/>
<polygon points="138 -109.962 98.1549 -89.661 86.3037 -140.826 " stroke="black" stroke-width="1" fill="transparent"/>
<polygon points="120.8 -74.6108 98.1549 -89.661 138 -109.962 " stroke="black" stroke-width="1" fill="transparent"/>
<polygon points="-14.098 -85.2686 -39.1444 -135.442 -9.71591 -171.076 " stroke="black" stroke-width="1" fill="transparent"/>
<polygon points="-14.098 -85.2686 -9.71591 -171.076 12.8407 -146.94 " stroke="black" stroke-width="1" fill="transparent"/>
<polygon points="36.4501 -110.534 -14.098 -85.2686 12.8407 -146.94 " stroke="black" stroke-width="1" fill="transparent"/>
<polygon points="105.317 -167.119 36.4501 -110.534 12.8407 -146.94 " stroke="black" stroke-width="1" fill="transparent"/>
<polygon points="105.317 -167.119 86.1354 -118.234 36.4501 -110.534 " stroke="black" stroke-width="1" fill="transparent"/>
<polygon points="125.83 -419.395 141.315 -389.871 60.1951 -385.603 " stroke="black" stroke-width="1" fill="transparent"/>
<polygon points="125.83 -419.395 179.907 -421.81 141.315 -389.871 " stroke="black" stroke-width="1" fill="transparent"/>
<polygon points="125.83 -419.395 185.295 -461.137 179.907 -421.81 " stroke="black" stroke-width="1" fill="transparent"/>
<polygon points="60.1951 -385.603 59.5918 -415.801 125.83 -419.395 " stroke="black" stroke-width="1" fill="transparent"/>
<polygon points="134.475 -455.086 125.83 -419.395 59.5918 -415.801 " stroke="black" stroke-width="1" fill="transparent"/>
<polygon points="134.475 -455.086 185.111 -428.381 125.83 -419.395 " stroke="black" stroke-width="1" fill="transparent"/>
<polygon points="134.475 -455.086 210.422 -503.272 185.111 -428.381 " stroke="black" stroke-width="1" fill="transparent"/>
<polygon points="-63.3276 -219.734 -120.394 -236.248 -48.3975 -261.846 " stroke="black" stroke-width="1" fill="transparent"/>
<polygon points="2.39701 -185.822 59.463 -169.307 47.352 -139.817 " stroke="black" stroke-width="1" fill="transparent"/>
<polygon points="59.463 -169.307 105.637 -167.33 47.352 -139.817 " stroke="black" stroke-width="1" fill="transparent"/>
<polygon points="105.637 -167.33 94.1778 -77.1319 47.352 -139.817 " stroke="black" stroke-width="1" fill="transparent"/>
<polygon points="94.1778 -77.1319 105.637 -167.33 127.768 -99.1041 " stroke="black" stroke-width="1" fill="transparent"/>
<polygon points="127.768 -99.1041 109.966 -52.141 94.1778 -77.1319 " stroke="black" stroke-width="1" fill="transparent"/>
<polygon points="109.966 -52.141 127.768 -99.1041 194.083 -110.027 " stroke="black" stroke-width="1" fill="transparent"/>
<polygon points="109.966 -52.141 194.083 -110.027 188.362 -78.6488 " stroke="black" stroke-width="1" fill="transparent"/>
<polygon points="251.867 -110.956 188.362 -78.6488 194.083 -110.027 " stroke="black" stroke-width="1" fill="transparent"/>
<polygon points="251.867 -110.956 257.171 -49.4913 188.362 -78.6488 " stroke="black" stroke-width="1" fill="transparent"/>
<polygon points="40.6592 -57.9119 47.352 -139.817 94.1778 -77.1319 " stroke="black" stroke-width="1" fill="transparent"/>
<polygon points="40.6592 -57.9119 94.1778 -77.1319 64.9194 -18.4878 " stroke="black" stroke-width="1" fill="transparent"/>
<polygon points="64.9194 -18.4878 94.1778 -77.1319 103.077 -47.9475 " stroke="black" stroke-width="1" fill="transparent"/>
<polygon points="94.1237 14.8887 64.9194 -18.4878 103.077 -47.9475 " stroke="black" stroke-width="1" fill="transparent"/>
<polygon points="94.1237 14.8887 103.077 -47.9475 177.476 -61.5297 " stroke="black" stroke-width="1" fill="transparent"/>
<polygon points="144.026 13.1442 94.1237 14.8887 177.476 -61.5297 " stroke="black" stroke-width="1" fill="transparent"/>
<polygon points="188.57 8.63489 144.026 13.1442 177.476 -61.5297 " stroke="black" stroke-width="1" fill="transparent"/>
<polygon points="144.026 13.1442 188.57 8.63489 151.061 54.0358 " stroke="black" stroke-width="1" fill="transparent"/>
<polygon points="151.061 54.0358 188.57 8.63489 124.058 101.856 " stroke="black" stroke-width="1" fill="transparent"/>
<polygon points="124.058 101.856 35.5964 177.905 151.061 54.0358 " stroke="black" stroke-width="1" fill="transparent"/>
<polygon points="124.058 101.856 53.359 201.367 35.5964 177.905 " stroke="black" stroke-width="1" fill="transparent"/>
<polygon points="53.359 201.367 19.8348 286.687 35.5964 177.905 " stroke="black" stroke-width="1" fill="transparent"/>
<polygon points="19.8348 286.687 53.359 201.367 49.517 290.352 " stroke="black" stroke-width="1" fill="transparent"/>
<polygon points="40.6592 -57.9119 64.9194 -18.4878 5.17086 -4.53131 " stroke="black" stroke-width="1" fill="transparent"/>
<polygon points="420.073 -28.5545 422.018 40.0731 360.324 -14.598 " stroke="black" stroke-width="1" fill="transparent"/>
<polygon points="420.073 -28.5545 444.001 8.50096 422.018 40.0731 " stroke="black" stroke-width="1" fill="transparent"/>
<polygon points="449.44 82.62 422.018 40.0731 444.001 8.50096 " stroke="black" stroke-width="1" fill="transparent"/>
<polygon points="408.065 121.215 422.018 40.0731 449.44 82.62 " stroke="black" stroke-width="1" fill="transparent"/>
<polygon points="195.456 44.4272 234.081 -7.70026 275.456 -46.2957 " stroke="black" stroke-width="1" fill="transparent"/>
<polygon points="195.456 44.4272 204.223 -1.06699 234.081 -7.70026 " stroke="black" stroke-width="1" fill="transparent"/>
<polygon points="204.223 -1.06699 195.456 44.4272 165.407 41.587 " stroke="black" stroke-width="1" fill="transparent"/>
<polygon points="165.407 41.587 195.456 44.4272 133.576 129.509 " stroke="black" stroke-width="1" fill="transparent"/>
<polygon points="165.407 41.587 133.576 129.509 80.5243 164.138 " stroke="black" stroke-width="1" fill="transparent"/>
<polygon points="275.456 -46.2957 226.732 40.6288 195.456 44.4272 " stroke="black" stroke-width="1" fill="transparent"/>
<polygon points="195.456 44.4272 226.732 40.6288 110.962 130.08 " stroke="black" stroke-width="1" fill="transparent"/>
<polygon points="226.732 40.6288 173.925 100.759 110.962 130.08 " stroke="black" stroke-width="1" fill="transparent"/>
<polygon points="118.528 162.24 110.962 130.08 173.925 100.759 " stroke="black" stroke-width="1" fill="transparent"/>
<polygon points="97.9265 113.774 195.456 44.4272 110.962 130.08 " stroke="black" stroke-width="1" fill="transparent"/>
<polygon points="44.6613 148.035 97.9265 113.774 110.962 130.08 " stroke="black" stroke-width="1" fill="transparent"/>
<polygon points="110.962 130.08 62.1273 163.768 44.6613 148.035 " stroke="black" stroke-width="1" fill="transparent"/>
<polygon points="497.065 1.03532 449.44 82.62 444.001 8.50096 " stroke="black" stroke-width="1" fill="transparent"/>
<polygon points="449.44 82.62 497.065 1.03532 492.566 109.731 " stroke="black" stroke-width="1" fill="transparent"/>
<polygon points="527.203 27.1371 492.566 109.731 497.065 1.03532 " stroke="black" stroke-width="1" fill="transparent"/>
<polygon points="527.203 27.1371 498.574 146.148 492.566 109.731 " stroke="black" stroke-width="1" fill="transparent"/>
<polygon points="449.44 82.62 492.566 109.731 476.46 154.286 " stroke="black" stroke-width="1" fill="transparent"/>
<polygon points="449.44 82.62 476.46 154.286 449.822 156.402 " stroke="black" stroke-width="1" fill="transparent"/>
<polygon points="476.46 154.286 422.876 216.662 449.822 156.402 " stroke="black" stroke-width="1" fill="transparent"/>
<polygon points="422.876 216.662 476.46 154.286 410.768 274.697 " stroke="black" stroke-width="1" fill="transparent"/>
<polygon points="345.745 31.6211 360.324 -14.598 422.018 40.0731 " stroke="black" stroke-width="1" fill="transparent"/>
<polygon points="422.018 40.0731 388.098 53.9754 345.745 31.6211 " stroke="black" stroke-width="1" fill="transparent"/>
<polygon points="634.016 121.256 667.936 107.354 653.062 161.722 " stroke="black" stroke-width="1" fill="transparent"/>
<polygon points="653.062 161.722 667.936 107.354 677.838 178.544 " stroke="black" stroke-width="1" fill="transparent"/>
<polygon points="677.838 178.544 647.154 195.6 653.062 161.722 " stroke="black" stroke-width="1" fill="transparent"/>
<polygon points="634.016 121.256 653.062 161.722 593.107 184.834 " stroke="black" stroke-width="1" fill="transparent"/>
<polygon points="593.107 184.834 653.062 161.722 657.145 191.441 " stroke="black" stroke-width="1" fill="transparent"/>
<polygon points="345.745 31.6211 388.098 53.9754 297.982 66.7633 " stroke="black" stroke-width="1" fill="transparent"/>
<polygon points="-25.1653 -162.506 2.39701 -185.822 47.352 -139.817 " stroke="black" stroke-width="1" fill="transparent"/>
<polygon points="-350.949 159.58 -398.1 89.919 -325.582 112.608 " stroke="black" stroke-width="1" fill="transparent"/>
<polygon points="-350.949 159.58 -435.213 175.615 -398.1 89.919 " stroke="black" stroke-width="1" fill="transparent"/>
<polygon points="-435.213 175.615 -350.949 159.58 -388.105 203.026 " stroke="black" stroke-width="1" fill="transparent"/>
<polygon points="-388.105 203.026 -350.949 159.58 -354.403 231.329 " stroke="black" stroke-width="1" fill="transparent"/>
<polygon points="-388.105 203.026 -354.403 231.329 -430.186 275.519 " stroke="black" stroke-width="1" fill="transparent"/>
<polygon points="-354.403 231.329 -371.247 271.605 -430.186 275.519 " stroke="black" stroke-width="1" fill="transparent"/>
<polygon points="-430.186 275.519 -371.247 271.605 -388.405 309.529 " stroke="black" stroke-width="1" fill="transparent"/>
<polygon points="-300.899 179.331 -350.949 159.58 -325.582 112.608 " stroke="black" stroke-width="1" fill="transparent"/>
<polygon points="-323.035 231.448 -350.949 159.58 -300.899 179.331 " stroke="black" stroke-width="1" fill="transparent"/>
<polygon points="-323.035 231.448 -369.696 236.759 -350.949 159.58 " stroke="black" stroke-width="1" fill="transparent"/>
<polygon points="-323.035 231.448 -382.98 276.258 -369.696 236.759 " stroke="black" stroke-width="1" fill="transparent"/>
<polygon points="-338.254 277.83 -382.98 276.258 -323.035 231.448 " stroke="black" stroke-width="1" fill="transparent"/>
<polygon points="-338.254 277.83 -387.656 310.844 -382.98 276.258 " stroke="black" stroke-width="1" fill="transparent"/>
<polygon points="3.11389 -235.288 -63.3276 -219.734 -48.3975 -261.846 " stroke="black" stroke-width="1" fill="transparent"/>
<polygon points="-28.6116 -204.466 -63.3276 -219.734 3.11389 -235.288 " stroke="black" stroke-width="1" fill="transparent"/>
<polygon points="318.593 -286.594 328.182 -227.632 286.868 -255.772 " stroke="black" stroke-width="1" fill="transparent"/>
<polygon points="318.593 -286.594 363.6 -268.155 328.182 -227.632 " stroke="black" stroke-width="1" fill="transparent"/>
<polygon points="378.286 -212.637 328.182 -227.632 363.6 -268.155 " stroke="black" stroke-width="1" fill="transparent"/>
<polygon points="280.58 -144.323 328.182 -227.632 378.286 -212.637 " stroke="black" stroke-width="1" fill="transparent"/>
<polygon points="326.715 -130.39 280.58 -144.323 378.286 -212.637 " stroke="black" stroke-width="1" fill="transparent"/>
<polygon points="326.715 -130.39 378.286 -212.637 339.024 -72.3923 " stroke="black" stroke-width="1" fill="transparent"/>
<polygon points="378.286 -212.637 363.6 -268.155 407.564 -272.935 " stroke="black" stroke-width="1" fill="transparent"/>
<polygon points="414.229 -217.689 378.286 -212.637 407.564 -272.935 " stroke="black" stroke-width="1" fill="transparent"/>
<polygon points="358.561 -78.6165 378.286 -212.637 414.229 -217.689 " stroke="black" stroke-width="1" fill="transparent"/>
<polygon points="358.561 -78.6165 414.229 -217.689 439.007 -100.467 " stroke="black" stroke-width="1" fill="transparent"/>
<polygon points="358.561 -78.6165 439.007 -100.467 396.914 -45.807 " stroke="black" stroke-width="1" fill="transparent"/>
<polygon points="396.914 -45.807 439.007 -100.467 475.394 -76.482 " stroke="black" stroke-width="1" fill="transparent"/>
<polygon points="358.561 -78.6165 396.914 -45.807 386.184 -13.7768 " stroke="black" stroke-width="1" fill="transparent"/>
<polygon points="396.914 -45.807 418.651 -1.59015 386.184 -13.7768 " stroke="black" stroke-width="1" fill="transparent"/>
<polygon points="398.378 41.6038 386.184 -13.7768 418.651 -1.59015 " stroke="black" stroke-width="1" fill="transparent"/>
<polygon points="398.378 41.6038 374.191 75.3848 386.184 -13.7768 " stroke="black" stroke-width="1" fill="transparent"/>
<polygon points="431.866 128.518 374.191 75.3848 398.378 41.6038 " stroke="black" stroke-width="1" fill="transparent"/>
<polygon points="456.337 -287.712 414.229 -217.689 407.564 -272.935 " stroke="black" stroke-width="1" fill="transparent"/>
<polygon points="456.337 -287.712 487.251 -237.441 414.229 -217.689 " stroke="black" stroke-width="1" fill="transparent"/>
<polygon points="286.868 -255.772 328.182 -227.632 256.333 -166.257 " stroke="black" stroke-width="1" fill="transparent"/>
<polygon points="328.182 -227.632 301.118 -147.663 256.333 -166.257 " stroke="black" stroke-width="1" fill="transparent"/>
</svg>